<svg width="374" height="812" viewBox="0 0 374 812" fill="none" xmlns="http://www.w3.org/2000/svg">
<rect width="374" height="812" fill="white"/>
<path d="M112.728 71H116.928V58.31C116.928 58.31 118.128 60.38 119.418 62.12L125.898 71H129.948V51.56H125.748V64.37C125.748 64.37 124.518 62.27 123.438 60.8L116.748 51.56H112.728V71ZM141.083 71.3C143.033 71.3 144.983 70.76 146.663 69.65L145.163 66.77C144.053 67.52 142.553 67.94 141.113 67.94C139.133 67.94 137.423 66.95 136.943 64.88H147.833C147.833 64.88 147.923 64.16 147.923 63.44C147.923 59.18 144.713 55.7 140.633 55.7C136.223 55.7 132.863 59.18 132.863 63.5C132.863 68.45 136.703 71.3 141.083 71.3ZM136.883 62.21C137.273 60.32 138.773 59.06 140.513 59.06C142.343 59.06 143.843 60.32 144.143 62.21H136.883ZM158.249 71.3C160.199 71.3 162.149 70.76 163.829 69.65L162.329 66.77C161.219 67.52 159.719 67.94 158.279 67.94C156.299 67.94 154.589 66.95 154.109 64.88H164.999C164.999 64.88 165.089 64.16 165.089 63.44C165.089 59.18 161.879 55.7 157.799 55.7C153.389 55.7 150.029 59.18 150.029 63.5C150.029 68.45 153.869 71.3 158.249 71.3ZM154.049 62.21C154.439 60.32 155.939 59.06 157.679 59.06C159.509 59.06 161.009 60.32 161.309 62.21H154.049ZM173.974 71.3C175.774 71.3 177.694 70.64 178.774 69.2V71H182.584V51.26H178.564V57.68C177.484 56.39 175.774 55.7 174.034 55.7C169.894 55.7 167.194 59.18 167.194 63.5C167.194 67.82 169.834 71.3 173.974 71.3ZM174.994 67.58C172.834 67.58 171.274 65.87 171.274 63.5C171.274 61.16 172.834 59.42 174.994 59.42C177.064 59.42 178.564 61.16 178.564 63.5C178.564 65.9 177.064 67.58 174.994 67.58ZM192.045 71H196.065V63.38C196.065 61.22 197.235 59.51 199.365 59.51C201.345 59.51 202.005 60.68 202.005 62.87V71H206.025V62.36C206.025 58.16 204.585 55.7 200.685 55.7C198.885 55.7 197.235 56.33 196.065 57.89V51.26H192.045V71ZM216.57 71.3C218.52 71.3 220.47 70.76 222.15 69.65L220.65 66.77C219.54 67.52 218.04 67.94 216.6 67.94C214.62 67.94 212.91 66.95 212.43 64.88H223.32C223.32 64.88 223.41 64.16 223.41 63.44C223.41 59.18 220.2 55.7 216.12 55.7C211.71 55.7 208.35 59.18 208.35 63.5C208.35 68.45 212.19 71.3 216.57 71.3ZM212.37 62.21C212.76 60.32 214.26 59.06 216 59.06C217.83 59.06 219.33 60.32 219.63 62.21H212.37ZM225.966 71H229.986V51.26H225.966V71ZM232.966 75.32H236.986V69.29C238.066 70.61 239.776 71.3 241.516 71.3C245.656 71.3 248.356 67.82 248.356 63.47C248.356 59.18 245.716 55.7 241.576 55.7C239.776 55.7 238.006 56.33 236.776 57.8V56H232.966V75.32ZM240.526 67.58C238.456 67.58 236.956 65.87 236.956 63.5C236.956 61.1 238.486 59.42 240.526 59.42C242.716 59.42 244.246 61.13 244.246 63.5C244.246 65.87 242.716 67.58 240.526 67.58ZM255.466 51.26C252.586 51.26 250.336 52.73 249.346 55.25L252.616 56.75C253.156 55.67 254.146 55.07 255.286 55.07C256.786 55.07 257.956 56.21 257.956 57.59C257.956 59.51 256.276 60.77 253.216 60.77L253.666 64.82H256.936L257.266 62.9C259.996 62.42 261.946 60.14 261.946 57.35C261.946 53.99 259.516 51.26 255.466 51.26ZM255.286 66.59C253.966 66.59 252.946 67.67 252.946 68.96C252.946 70.28 253.936 71.33 255.286 71.33C256.636 71.33 257.686 70.28 257.686 68.96C257.686 67.67 256.636 66.59 255.286 66.59Z" fill="#370050"/>
<path opacity="0.05" d="M187 172C204.673 172 219 157.673 219 140C219 122.327 204.673 108 187 108C169.327 108 155 122.327 155 140C155 157.673 169.327 172 187 172Z" fill="url(#paint0_linear_2_1961)"/>
<path d="M195.255 151.501C195.155 151.501 195.055 151.501 194.96 151.488C191.576 151.121 188.325 149.967 185.467 148.119C182.822 146.433 180.578 144.188 178.892 141.542C177.045 138.682 175.894 135.428 175.531 132.042C175.49 131.617 175.534 131.189 175.659 130.781C175.784 130.373 175.989 129.993 176.261 129.665C176.534 129.336 176.868 129.065 177.246 128.866C177.624 128.667 178.037 128.545 178.462 128.506C178.562 128.498 178.655 128.493 178.753 128.493H181.898C182.677 128.496 183.428 128.779 184.016 129.29C184.603 129.801 184.987 130.506 185.098 131.277C185.218 132.19 185.441 133.086 185.763 133.949C185.979 134.528 186.026 135.157 185.897 135.762C185.768 136.367 185.47 136.922 185.036 137.363L184.357 138.041C185.543 139.875 187.104 141.436 188.937 142.622L189.61 141.948C190.051 141.512 190.608 141.212 191.215 141.082C191.821 140.953 192.452 141 193.033 141.217C193.891 141.537 194.783 141.759 195.691 141.879C196.476 141.989 197.194 142.382 197.709 142.984C198.224 143.587 198.5 144.358 198.485 145.15V148.25C198.487 149.109 198.149 149.935 197.543 150.544C196.937 151.154 196.114 151.498 195.255 151.501ZM195.181 149.173H195.25C195.49 149.17 195.72 149.072 195.889 148.9C196.057 148.729 196.151 148.498 196.15 148.257V145.111C196.156 144.888 196.079 144.67 195.935 144.5C195.79 144.329 195.588 144.217 195.367 144.186C194.288 144.043 193.228 143.779 192.208 143.398C192.045 143.336 191.867 143.322 191.696 143.357C191.525 143.393 191.368 143.476 191.243 143.598L189.929 144.912C189.748 145.093 189.514 145.209 189.261 145.243C189.008 145.277 188.751 145.227 188.529 145.1C185.75 143.519 183.449 141.217 181.868 138.438C181.742 138.216 181.692 137.959 181.726 137.706C181.76 137.453 181.876 137.218 182.057 137.038L183.375 135.721C183.496 135.597 183.578 135.441 183.614 135.272C183.649 135.102 183.636 134.926 183.575 134.764C183.193 133.739 182.927 132.674 182.783 131.59C182.749 131.374 182.639 131.176 182.472 131.035C182.305 130.893 182.092 130.815 181.873 130.817H178.673C178.554 130.828 178.437 130.862 178.331 130.917C178.225 130.973 178.131 131.049 178.054 131.141C177.977 131.232 177.919 131.339 177.883 131.453C177.847 131.567 177.834 131.688 177.845 131.807C178.171 134.826 179.198 137.726 180.845 140.277C182.351 142.641 184.355 144.646 186.718 146.153C189.264 147.801 192.16 148.832 195.175 149.164L195.181 149.173Z" fill="url(#paint1_linear_2_1961)"/>
<path d="M83.623 209H85.711V199.136H89.815V197.336H79.519V199.136H83.623V209ZM94.2094 209.18C96.8374 209.18 98.9434 207.128 98.9434 204.554C98.9434 201.962 96.8374 199.91 94.2094 199.91C91.5814 199.91 89.4754 201.962 89.4754 204.554C89.4754 207.128 91.5814 209.18 94.2094 209.18ZM94.2094 207.254C92.6794 207.254 91.5094 206.102 91.5094 204.554C91.5094 202.988 92.6794 201.836 94.2094 201.836C95.7394 201.836 96.9094 202.988 96.9094 204.554C96.9094 206.102 95.7394 207.254 94.2094 207.254ZM104.582 211.574H106.58V207.866C107.282 208.694 108.344 209.18 109.55 209.18C111.998 209.18 113.672 207.11 113.672 204.536C113.672 201.98 111.998 199.91 109.55 199.91C108.308 199.91 107.21 200.378 106.49 201.206V200.09H104.582V211.574ZM109.046 207.254C107.624 207.254 106.58 206.102 106.58 204.536C106.58 202.952 107.642 201.836 109.046 201.836C110.558 201.836 111.638 202.97 111.638 204.536C111.638 206.102 110.558 207.254 109.046 207.254ZM118.489 209.18C119.569 209.18 120.811 208.604 121.351 207.632V209H123.241V200.09H121.243V204.824C121.243 206.102 120.505 207.254 119.119 207.254C117.877 207.254 117.247 206.642 117.247 205.22V200.09H115.249V205.508C115.249 207.848 116.131 209.18 118.489 209.18ZM125.254 209H127.252V205.364C127.252 203.024 128.512 202.088 130.474 202.088V199.91C128.566 199.91 127.594 200.954 127.252 201.854V200.09H125.254V209ZM136.168 209.18C137.464 209.18 138.67 208.73 139.534 207.992L138.436 206.48C137.914 206.966 137.086 207.254 136.258 207.254C134.548 207.254 133.468 206.084 133.468 204.554C133.468 202.97 134.638 201.836 136.204 201.836C136.996 201.836 137.662 202.07 138.112 202.484L139.354 201.062C138.508 200.342 137.392 199.91 136.168 199.91C133.54 199.91 131.434 201.962 131.434 204.554C131.434 207.146 133.54 209.18 136.168 209.18ZM140.916 209H142.914V204.32C142.914 202.934 143.724 201.836 145.11 201.836C146.586 201.836 146.982 202.682 146.982 204.14V209H148.98V203.888C148.98 201.44 148.116 199.91 145.776 199.91C144.588 199.91 143.562 200.378 142.914 201.368V197.156H140.916V209ZM154.681 209.18C155.887 209.18 156.949 208.712 157.651 207.884V209H159.649V200.09H157.651V201.224C156.949 200.396 155.887 199.91 154.681 199.91C152.233 199.91 150.559 201.98 150.559 204.554C150.559 207.11 152.233 209.18 154.681 209.18ZM155.185 207.254C153.673 207.254 152.593 206.12 152.593 204.554C152.593 202.988 153.673 201.836 155.185 201.836C156.607 201.836 157.651 202.988 157.651 204.554C157.651 206.138 156.589 207.254 155.185 207.254ZM164.772 209.18C166.428 209.18 168.57 208.424 168.57 206.336C168.57 204.5 166.842 203.834 165.186 203.474C164.394 203.312 163.656 203.168 163.656 202.556C163.656 202.088 164.322 201.782 164.988 201.782C165.87 201.782 166.626 201.998 167.418 202.448L168.156 200.828C167.184 200.252 166.302 199.91 164.97 199.91C163.404 199.91 161.622 200.846 161.622 202.592C161.622 204.338 163.062 204.842 164.754 205.31C165.636 205.562 166.536 205.724 166.536 206.372C166.536 207.002 165.582 207.308 164.772 207.308C163.44 207.308 162.522 206.714 161.946 206.246L161.19 207.884C161.676 208.352 162.936 209.18 164.772 209.18ZM174.666 209.18C175.854 209.18 177.042 208.802 178.05 208.118L177.258 206.642C176.538 207.146 175.602 207.416 174.702 207.416C173.37 207.416 172.218 206.678 171.93 205.256H178.68C178.68 205.256 178.734 204.86 178.734 204.482C178.734 201.98 176.826 199.91 174.45 199.91C171.858 199.91 169.86 201.998 169.86 204.554C169.86 207.488 172.128 209.18 174.666 209.18ZM171.912 203.78C172.182 202.502 173.19 201.656 174.342 201.656C175.566 201.656 176.592 202.502 176.79 203.78H171.912ZM188.815 209.18C191.443 209.18 193.549 207.128 193.549 204.554C193.549 201.962 191.443 199.91 188.815 199.91C186.187 199.91 184.081 201.962 184.081 204.554C184.081 207.128 186.187 209.18 188.815 209.18ZM188.815 207.254C187.285 207.254 186.115 206.102 186.115 204.554C186.115 202.988 187.285 201.836 188.815 201.836C190.345 201.836 191.515 202.988 191.515 204.554C191.515 206.102 190.345 207.254 188.815 207.254ZM198.364 209.18C199.444 209.18 200.686 208.604 201.226 207.632V209H203.116V200.09H201.118V204.824C201.118 206.102 200.38 207.254 198.994 207.254C197.752 207.254 197.122 206.642 197.122 205.22V200.09H195.124V205.508C195.124 207.848 196.006 209.18 198.364 209.18ZM205.129 209H207.127V205.364C207.127 203.024 208.387 202.088 210.349 202.088V199.91C208.441 199.91 207.469 200.954 207.127 201.854V200.09H205.129V209ZM215.711 211.574H217.709V207.866C218.411 208.694 219.473 209.18 220.679 209.18C223.127 209.18 224.801 207.11 224.801 204.536C224.801 201.98 223.127 199.91 220.679 199.91C219.437 199.91 218.339 200.378 217.619 201.206V200.09H215.711V211.574ZM220.175 207.254C218.753 207.254 217.709 206.102 217.709 204.536C217.709 202.952 218.771 201.836 220.175 201.836C221.687 201.836 222.767 202.97 222.767 204.536C222.767 206.102 221.687 207.254 220.175 207.254ZM230.32 209.18C231.526 209.18 232.588 208.712 233.29 207.884V209H235.288V200.09H233.29V201.224C232.588 200.396 231.526 199.91 230.32 199.91C227.872 199.91 226.198 201.98 226.198 204.554C226.198 207.11 227.872 209.18 230.32 209.18ZM230.824 207.254C229.312 207.254 228.232 206.12 228.232 204.554C228.232 202.988 229.312 201.836 230.824 201.836C232.246 201.836 233.29 202.988 233.29 204.554C233.29 206.138 232.228 207.254 230.824 207.254ZM241.725 209.18C243.021 209.18 244.227 208.73 245.091 207.992L243.993 206.48C243.471 206.966 242.643 207.254 241.815 207.254C240.105 207.254 239.025 206.084 239.025 204.554C239.025 202.97 240.195 201.836 241.761 201.836C242.553 201.836 243.219 202.07 243.669 202.484L244.911 201.062C244.065 200.342 242.949 199.91 241.725 199.91C239.097 199.91 236.991 201.962 236.991 204.554C236.991 207.146 239.097 209.18 241.725 209.18ZM246.473 209H248.471V206.948L249.731 205.454L252.665 209H255.095L250.937 204.068L254.447 200.09H251.981L248.471 204.284V197.156H246.473V209ZM259.394 209.18C260.6 209.18 261.662 208.712 262.364 207.884V209H264.362V200.09H262.364V201.224C261.662 200.396 260.6 199.91 259.394 199.91C256.946 199.91 255.272 201.98 255.272 204.554C255.272 207.11 256.946 209.18 259.394 209.18ZM259.898 207.254C258.386 207.254 257.306 206.12 257.306 204.554C257.306 202.988 258.386 201.836 259.898 201.836C261.32 201.836 262.364 202.988 262.364 204.554C262.364 206.138 261.302 207.254 259.898 207.254ZM270.439 211.646C272.995 211.646 275.083 210.08 275.083 206.966V200.09H273.175V201.422C272.707 200.54 271.501 199.91 270.151 199.91C267.685 199.91 266.065 201.836 266.065 204.23C266.065 206.624 267.685 208.532 270.151 208.532C271.771 208.532 272.725 207.722 273.085 207.002V207.074C273.085 208.892 272.149 210.116 270.241 210.116C269.323 210.116 268.279 209.81 267.577 209.198L266.803 210.458C267.631 211.196 268.909 211.646 270.439 211.646ZM270.583 206.786C269.179 206.786 268.099 205.706 268.099 204.23C268.099 202.754 269.179 201.656 270.583 201.656C271.987 201.656 273.085 202.736 273.085 204.158C273.085 205.706 272.023 206.786 270.583 206.786ZM281.594 209.18C282.782 209.18 283.97 208.802 284.978 208.118L284.186 206.642C283.466 207.146 282.53 207.416 281.63 207.416C280.298 207.416 279.146 206.678 278.858 205.256H285.608C285.608 205.256 285.662 204.86 285.662 204.482C285.662 201.98 283.754 199.91 281.378 199.91C278.786 199.91 276.788 201.998 276.788 204.554C276.788 207.488 279.056 209.18 281.594 209.18ZM278.84 203.78C279.11 202.502 280.118 201.656 281.27 201.656C282.494 201.656 283.52 202.502 283.718 203.78H278.84ZM290.491 209.18C292.147 209.18 294.289 208.424 294.289 206.336C294.289 204.5 292.561 203.834 290.905 203.474C290.113 203.312 289.375 203.168 289.375 202.556C289.375 202.088 290.041 201.782 290.707 201.782C291.589 201.782 292.345 201.998 293.137 202.448L293.875 200.828C292.903 200.252 292.021 199.91 290.689 199.91C289.123 199.91 287.341 200.846 287.341 202.592C287.341 204.338 288.781 204.842 290.473 205.31C291.355 205.562 292.255 205.724 292.255 206.372C292.255 207.002 291.301 207.308 290.491 207.308C289.159 207.308 288.241 206.714 287.665 206.246L286.909 207.884C287.395 208.352 288.655 209.18 290.491 209.18Z" fill="#370050"/>
<path d="M74.0926 244H75.5326V234.766C75.5326 234.766 75.8566 235.324 76.3786 236.062L80.1046 241.318L83.8126 236.098C84.3706 235.324 84.6766 234.766 84.6766 234.766V244H86.1166V232.336H84.8386L81.9946 236.314C81.3826 237.178 80.1046 238.996 80.1046 238.996C80.1046 238.996 78.8266 237.16 78.2146 236.296L75.3706 232.336H74.0926V244ZM92.8727 244.18C95.4467 244.18 97.4807 242.164 97.4807 239.626C97.4807 237.07 95.4467 235.054 92.8727 235.054C90.2987 235.054 88.2647 237.07 88.2647 239.626C88.2647 242.164 90.2987 244.18 92.8727 244.18ZM92.8727 242.848C91.0547 242.848 89.6687 241.462 89.6687 239.626C89.6687 237.772 91.0547 236.386 92.8727 236.386C94.6907 236.386 96.0767 237.772 96.0767 239.626C96.0767 241.462 94.6907 242.848 92.8727 242.848ZM99.4176 244H100.786V239.068C100.786 237.61 101.884 236.386 103.45 236.386C105.034 236.386 105.628 237.25 105.628 238.87V244H106.996V238.69C106.996 236.386 106.024 235.054 103.828 235.054C102.532 235.054 101.398 235.666 100.786 236.728V235.234H99.4176V244ZM112.936 244.18C114.358 244.18 115.636 243.622 116.284 242.47V244H117.598V232.156H116.23V236.764C115.582 235.63 114.34 235.054 112.936 235.054C110.506 235.054 108.796 237.052 108.796 239.626C108.796 242.164 110.506 244.18 112.936 244.18ZM113.242 242.848C111.496 242.848 110.2 241.48 110.2 239.626C110.2 237.754 111.496 236.386 113.242 236.386C114.916 236.386 116.23 237.79 116.23 239.626C116.23 241.462 114.916 242.848 113.242 242.848ZM123.676 244.18C125.08 244.18 126.322 243.622 126.97 242.47V244H128.338V235.234H126.97V236.764C126.322 235.63 125.08 235.054 123.676 235.054C121.246 235.054 119.536 237.052 119.536 239.626C119.536 242.164 121.246 244.18 123.676 244.18ZM123.982 242.848C122.236 242.848 120.94 241.48 120.94 239.626C120.94 237.754 122.236 236.386 123.982 236.386C125.656 236.386 126.97 237.79 126.97 239.626C126.97 241.462 125.656 242.848 123.982 242.848ZM131.248 246.646C132.274 246.646 133.516 246.502 134.47 244.432L138.646 235.234H137.242L134.632 241.066C134.488 241.39 134.218 242.11 134.218 242.11C134.218 242.11 134.02 241.534 133.822 241.12L131.068 235.234H129.646L133.588 243.424L133.39 243.82C132.796 245.08 132.202 245.35 131.248 245.35V246.646ZM143.297 240.274H150.119V239.104H143.297V240.274ZM156.007 244H157.447V238.384H163.225V237.142H157.447V233.596H164.377V232.336H156.007V244ZM165.265 244H166.633V239.842C166.633 237.7 167.965 236.548 170.017 236.548V235.054C168.271 235.054 167.137 235.936 166.633 237.088V235.234H165.265V244ZM171.593 244H172.961V235.234H171.593V244ZM172.277 233.668C172.781 233.668 173.195 233.272 173.195 232.768C173.195 232.264 172.781 231.85 172.277 231.85C171.773 231.85 171.377 232.264 171.377 232.768C171.377 233.272 171.773 233.668 172.277 233.668ZM179.047 244.18C180.469 244.18 181.747 243.622 182.395 242.47V244H183.709V232.156H182.341V236.764C181.693 235.63 180.451 235.054 179.047 235.054C176.617 235.054 174.907 237.052 174.907 239.626C174.907 242.164 176.617 244.18 179.047 244.18ZM179.353 242.848C177.607 242.848 176.311 241.48 176.311 239.626C176.311 237.754 177.607 236.386 179.353 236.386C181.027 236.386 182.341 237.79 182.341 239.626C182.341 241.462 181.027 242.848 179.353 242.848ZM189.787 244.18C191.191 244.18 192.433 243.622 193.081 242.47V244H194.449V235.234H193.081V236.764C192.433 235.63 191.191 235.054 189.787 235.054C187.357 235.054 185.647 237.052 185.647 239.626C185.647 242.164 187.357 244.18 189.787 244.18ZM190.093 242.848C188.347 242.848 187.051 241.48 187.051 239.626C187.051 237.754 188.347 236.386 190.093 236.386C191.767 236.386 193.081 237.79 193.081 239.626C193.081 241.462 191.767 242.848 190.093 242.848ZM197.36 246.646C198.386 246.646 199.628 246.502 200.582 244.432L204.758 235.234H203.354L200.744 241.066C200.6 241.39 200.33 242.11 200.33 242.11C200.33 242.11 200.132 241.534 199.934 241.12L197.18 235.234H195.758L199.7 243.424L199.502 243.82C198.908 245.08 198.314 245.35 197.36 245.35V246.646ZM206.873 237.736C207.395 237.736 207.827 237.304 207.827 236.782C207.827 236.26 207.395 235.828 206.873 235.828C206.351 235.828 205.937 236.26 205.937 236.782C205.937 237.304 206.351 237.736 206.873 237.736ZM206.873 244.18C207.395 244.18 207.827 243.748 207.827 243.226C207.827 242.704 207.395 242.272 206.873 242.272C206.351 242.272 205.937 242.704 205.937 243.226C205.937 243.748 206.351 244.18 206.873 244.18ZM217.882 232.156C215.326 232.156 213.67 233.992 213.67 236.296C213.67 238.51 215.344 240.274 217.684 240.274C218.026 240.274 218.368 240.184 218.53 240.13L215.758 243.388L216.856 244.216L220.996 239.194C221.662 238.384 222.094 237.322 222.094 236.242C222.094 233.974 220.492 232.156 217.882 232.156ZM217.882 233.398C219.538 233.398 220.636 234.658 220.636 236.26C220.636 237.772 219.466 239.086 217.882 239.086C216.298 239.086 215.128 237.844 215.128 236.26C215.128 234.64 216.262 233.398 217.882 233.398ZM227.932 244.18C229.336 244.18 230.578 243.622 231.226 242.47V244H232.594V235.234H231.226V236.764C230.578 235.63 229.336 235.054 227.932 235.054C225.502 235.054 223.792 237.052 223.792 239.626C223.792 242.164 225.502 244.18 227.932 244.18ZM228.238 242.848C226.492 242.848 225.196 241.48 225.196 239.626C225.196 237.754 226.492 236.386 228.238 236.386C229.912 236.386 231.226 237.79 231.226 239.626C231.226 241.462 229.912 242.848 228.238 242.848ZM234.892 244H236.26V238.96C236.26 237.682 237.178 236.386 238.708 236.386C240.292 236.386 240.814 237.376 240.814 238.87V244H242.2V238.888C242.2 237.574 243.136 236.386 244.612 236.386C246.214 236.386 246.736 237.376 246.736 238.87V244H248.122V238.69C248.122 236.278 247.006 235.054 244.9 235.054C243.874 235.054 242.506 235.63 241.876 236.908C241.462 235.666 240.472 235.054 239.068 235.054C237.844 235.054 236.746 235.792 236.26 236.746V235.234H234.892V244ZM253.617 240.274H260.439V239.104H253.617V240.274ZM270.071 244.18C272.609 244.18 274.355 242.65 274.355 240.526C274.355 239.032 273.437 237.898 272.015 237.376C272.861 236.926 273.401 236.062 273.401 235.018C273.401 233.38 272.069 232.156 270.071 232.156C268.073 232.156 266.723 233.38 266.723 235.018C266.723 236.062 267.263 236.926 268.109 237.376C266.687 237.898 265.787 239.032 265.787 240.526C265.787 242.65 267.515 244.18 270.071 244.18ZM270.071 242.938C268.379 242.938 267.245 241.876 267.245 240.472C267.245 239.086 268.379 237.97 270.071 237.97C271.763 237.97 272.879 239.086 272.879 240.472C272.879 241.876 271.763 242.938 270.071 242.938ZM270.071 236.908C268.847 236.908 268.055 236.116 268.055 235.108C268.055 234.118 268.865 233.326 270.071 233.326C271.277 233.326 272.087 234.118 272.087 235.108C272.087 236.116 271.277 236.908 270.071 236.908ZM276.324 246.538H277.692V242.47C278.34 243.604 279.6 244.18 280.986 244.18C283.416 244.18 285.126 242.164 285.126 239.608C285.126 237.052 283.416 235.054 280.986 235.054C279.564 235.054 278.286 235.612 277.638 236.746V235.234H276.324V246.538ZM280.68 242.848C279.006 242.848 277.692 241.444 277.692 239.608C277.692 237.772 279.006 236.386 280.68 236.386C282.426 236.386 283.722 237.754 283.722 239.608C283.722 241.48 282.426 242.848 280.68 242.848ZM287.064 244H288.432V238.96C288.432 237.682 289.35 236.386 290.88 236.386C292.464 236.386 292.986 237.376 292.986 238.87V244H294.372V238.888C294.372 237.574 295.308 236.386 296.784 236.386C298.386 236.386 298.908 237.376 298.908 238.87V244H300.294V238.69C300.294 236.278 299.178 235.054 297.072 235.054C296.046 235.054 294.678 235.63 294.048 236.908C293.634 235.666 292.644 235.054 291.24 235.054C290.016 235.054 288.918 235.792 288.432 236.746V235.234H287.064V244ZM106.83 271.18C109.062 271.18 111.456 270.154 111.456 267.76C111.456 265.582 109.278 264.844 107.118 264.304C105.552 263.908 104.22 263.512 104.22 262.306C104.22 261.01 105.696 260.47 106.848 260.47C107.964 260.47 109.134 260.74 110.178 261.55L110.772 260.452C109.602 259.516 108.288 259.156 106.848 259.156C104.76 259.156 102.762 260.218 102.762 262.306C102.762 264.466 104.85 265.132 106.938 265.654C108.432 266.032 109.944 266.428 109.944 267.76C109.944 269.2 108.36 269.866 106.848 269.866C105.084 269.866 103.824 269.2 102.888 268.282L102.276 269.362C103.122 270.262 104.526 271.18 106.83 271.18ZM117.26 271.18C118.664 271.18 119.906 270.622 120.554 269.47V271H121.922V262.234H120.554V263.764C119.906 262.63 118.664 262.054 117.26 262.054C114.83 262.054 113.12 264.052 113.12 266.626C113.12 269.164 114.83 271.18 117.26 271.18ZM117.566 269.848C115.82 269.848 114.524 268.48 114.524 266.626C114.524 264.754 115.82 263.386 117.566 263.386C119.24 263.386 120.554 264.79 120.554 266.626C120.554 268.462 119.24 269.848 117.566 269.848ZM127.154 271.18C128.108 271.18 128.828 270.766 129.17 270.532L128.72 269.47C128.72 269.47 128.09 269.956 127.28 269.956C126.578 269.956 126.056 269.614 126.056 268.408V263.368H129.044V262.234H126.056V260.092L124.688 260.344V262.234H123.374V263.368H124.688V268.372C124.688 270.424 125.606 271.18 127.154 271.18ZM133.837 271.18C134.989 271.18 136.249 270.586 136.789 269.452V271H138.103V262.234H136.735V267.202C136.735 268.552 135.817 269.848 134.233 269.848C132.811 269.848 132.019 269.164 132.019 267.526V262.234H130.651V267.706C130.651 270.046 131.677 271.18 133.837 271.18ZM140.41 271H141.778V266.842C141.778 264.7 143.11 263.548 145.162 263.548V262.054C143.416 262.054 142.282 262.936 141.778 264.088V262.234H140.41V271ZM150.342 271.18C151.764 271.18 153.042 270.622 153.69 269.47V271H155.004V259.156H153.636V263.764C152.988 262.63 151.746 262.054 150.342 262.054C147.912 262.054 146.202 264.052 146.202 266.626C146.202 269.164 147.912 271.18 150.342 271.18ZM150.648 269.848C148.902 269.848 147.606 268.48 147.606 266.626C147.606 264.754 148.902 263.386 150.648 263.386C152.322 263.386 153.636 264.79 153.636 266.626C153.636 268.462 152.322 269.848 150.648 269.848ZM161.082 271.18C162.486 271.18 163.728 270.622 164.376 269.47V271H165.744V262.234H164.376V263.764C163.728 262.63 162.486 262.054 161.082 262.054C158.652 262.054 156.942 264.052 156.942 266.626C156.942 269.164 158.652 271.18 161.082 271.18ZM161.388 269.848C159.642 269.848 158.346 268.48 158.346 266.626C158.346 264.754 159.642 263.386 161.388 263.386C163.062 263.386 164.376 264.79 164.376 266.626C164.376 268.462 163.062 269.848 161.388 269.848ZM168.655 273.646C169.681 273.646 170.923 273.502 171.877 271.432L176.053 262.234H174.649L172.039 268.066C171.895 268.39 171.625 269.11 171.625 269.11C171.625 269.11 171.427 268.534 171.229 268.12L168.475 262.234H167.053L170.995 270.424L170.797 270.82C170.203 272.08 169.609 272.35 168.655 272.35V273.646ZM178.168 264.736C178.69 264.736 179.122 264.304 179.122 263.782C179.122 263.26 178.69 262.828 178.168 262.828C177.646 262.828 177.232 263.26 177.232 263.782C177.232 264.304 177.646 264.736 178.168 264.736ZM178.168 271.18C178.69 271.18 179.122 270.748 179.122 270.226C179.122 269.704 178.69 269.272 178.168 269.272C177.646 269.272 177.232 269.704 177.232 270.226C177.232 270.748 177.646 271.18 178.168 271.18ZM189.176 259.156C186.62 259.156 184.964 260.992 184.964 263.296C184.964 265.51 186.638 267.274 188.978 267.274C189.32 267.274 189.662 267.184 189.824 267.13L187.052 270.388L188.15 271.216L192.29 266.194C192.956 265.384 193.388 264.322 193.388 263.242C193.388 260.974 191.786 259.156 189.176 259.156ZM189.176 260.398C190.832 260.398 191.93 261.658 191.93 263.26C191.93 264.772 190.76 266.086 189.176 266.086C187.592 266.086 186.422 264.844 186.422 263.26C186.422 261.64 187.556 260.398 189.176 260.398ZM199.227 271.18C200.631 271.18 201.873 270.622 202.521 269.47V271H203.889V262.234H202.521V263.764C201.873 262.63 200.631 262.054 199.227 262.054C196.797 262.054 195.087 264.052 195.087 266.626C195.087 269.164 196.797 271.18 199.227 271.18ZM199.533 269.848C197.787 269.848 196.491 268.48 196.491 266.626C196.491 264.754 197.787 263.386 199.533 263.386C201.207 263.386 202.521 264.79 202.521 266.626C202.521 268.462 201.207 269.848 199.533 269.848ZM206.187 271H207.555V265.96C207.555 264.682 208.473 263.386 210.003 263.386C211.587 263.386 212.109 264.376 212.109 265.87V271H213.495V265.888C213.495 264.574 214.431 263.386 215.907 263.386C217.509 263.386 218.031 264.376 218.031 265.87V271H219.417V265.69C219.417 263.278 218.301 262.054 216.195 262.054C215.169 262.054 213.801 262.63 213.171 263.908C212.757 262.666 211.767 262.054 210.363 262.054C209.139 262.054 208.041 262.792 207.555 263.746V262.234H206.187V271ZM224.912 267.274H231.734V266.104H224.912V267.274ZM241.042 271.18C243.652 271.18 245.398 269.524 245.398 267.292C245.398 265.024 243.598 263.602 241.258 263.602C240.412 263.602 239.746 263.8 239.152 264.124V260.578H244.75V259.336H237.766V265.078L238.414 265.6C238.882 265.276 239.746 264.79 240.898 264.79C242.608 264.79 243.94 265.744 243.94 267.328C243.94 268.732 242.824 269.938 241.024 269.938C239.584 269.938 238.45 269.254 238.036 268.912L237.442 269.992C238.054 270.514 239.224 271.18 241.042 271.18ZM247.636 273.538H249.004V269.47C249.652 270.604 250.912 271.18 252.298 271.18C254.728 271.18 256.438 269.164 256.438 266.608C256.438 264.052 254.728 262.054 252.298 262.054C250.876 262.054 249.598 262.612 248.95 263.746V262.234H247.636V273.538ZM251.992 269.848C250.318 269.848 249.004 268.444 249.004 266.608C249.004 264.772 250.318 263.386 251.992 263.386C253.738 263.386 255.034 264.754 255.034 266.608C255.034 268.48 253.738 269.848 251.992 269.848ZM258.377 271H259.745V265.96C259.745 264.682 260.663 263.386 262.193 263.386C263.777 263.386 264.299 264.376 264.299 265.87V271H265.685V265.888C265.685 264.574 266.621 263.386 268.097 263.386C269.699 263.386 270.221 264.376 270.221 265.87V271H271.607V265.69C271.607 263.278 270.491 262.054 268.385 262.054C267.359 262.054 265.991 262.63 265.361 263.908C264.947 262.666 263.957 262.054 262.553 262.054C261.329 262.054 260.231 262.792 259.745 263.746V262.234H258.377V271Z" fill="#524658"/>
<path d="M91.054 306.18C92.728 306.18 94.204 305.568 95.284 304.578L94.006 303.138C93.25 303.876 92.206 304.29 91.072 304.29C88.786 304.29 87.094 302.4 87.094 300.15C87.094 297.918 88.786 296.046 91.198 296.046C92.116 296.046 92.98 296.316 93.772 296.928L94.978 295.524C93.952 294.66 92.566 294.156 91.054 294.156C87.526 294.156 84.916 296.838 84.916 300.15C84.916 303.498 87.526 306.18 91.054 306.18ZM100.356 306.18C101.562 306.18 102.624 305.712 103.326 304.884V306H105.324V297.09H103.326V298.224C102.624 297.396 101.562 296.91 100.356 296.91C97.9082 296.91 96.2342 298.98 96.2342 301.554C96.2342 304.11 97.9082 306.18 100.356 306.18ZM100.86 304.254C99.3482 304.254 98.2682 303.12 98.2682 301.554C98.2682 299.988 99.3482 298.836 100.86 298.836C102.282 298.836 103.326 299.988 103.326 301.554C103.326 303.138 102.264 304.254 100.86 304.254ZM107.333 306H109.331V294.156H107.333V306ZM111.341 306H113.339V294.156H111.341V306ZM122.4 306.18C123.48 306.18 124.722 305.604 125.262 304.632V306H127.152V297.09H125.154V301.824C125.154 303.102 124.416 304.254 123.03 304.254C121.788 304.254 121.158 303.642 121.158 302.22V297.09H119.16V302.508C119.16 304.848 120.042 306.18 122.4 306.18ZM132.279 306.18C133.935 306.18 136.077 305.424 136.077 303.336C136.077 301.5 134.349 300.834 132.693 300.474C131.901 300.312 131.163 300.168 131.163 299.556C131.163 299.088 131.829 298.782 132.495 298.782C133.377 298.782 134.133 298.998 134.925 299.448L135.663 297.828C134.691 297.252 133.809 296.91 132.477 296.91C130.911 296.91 129.129 297.846 129.129 299.592C129.129 301.338 130.569 301.842 132.261 302.31C133.143 302.562 134.043 302.724 134.043 303.372C134.043 304.002 133.089 304.308 132.279 304.308C130.947 304.308 130.029 303.714 129.453 303.246L128.697 304.884C129.183 305.352 130.443 306.18 132.279 306.18ZM146.039 306.18C148.667 306.18 150.773 304.128 150.773 301.554C150.773 298.962 148.667 296.91 146.039 296.91C143.411 296.91 141.305 298.962 141.305 301.554C141.305 304.128 143.411 306.18 146.039 306.18ZM146.039 304.254C144.509 304.254 143.339 303.102 143.339 301.554C143.339 299.988 144.509 298.836 146.039 298.836C147.569 298.836 148.739 299.988 148.739 301.554C148.739 303.102 147.569 304.254 146.039 304.254ZM152.474 306H154.472V301.338C154.472 299.862 155.426 298.836 156.74 298.836C158.234 298.836 158.558 299.682 158.558 301.14V306H160.556V300.888C160.556 298.512 159.764 296.91 157.352 296.91C156.164 296.91 155.138 297.378 154.472 298.368V297.09H152.474V306ZM163.701 299.988C164.385 299.988 164.961 299.43 164.961 298.746C164.961 298.044 164.385 297.486 163.701 297.486C163.017 297.486 162.459 298.044 162.459 298.746C162.459 299.43 162.999 299.988 163.701 299.988ZM163.701 306.18C164.385 306.18 164.961 305.622 164.961 304.938C164.961 304.236 164.385 303.678 163.701 303.678C163.017 303.678 162.459 304.236 162.459 304.938C162.459 305.622 162.999 306.18 163.701 306.18Z" fill="#524658"/>
<path d="M175.286 306.18C177.95 306.18 179.822 303.696 179.822 300.168C179.822 296.64 177.95 294.156 175.286 294.156C172.604 294.156 170.732 296.64 170.732 300.168C170.732 303.696 172.604 306.18 175.286 306.18ZM175.286 304.38C173.738 304.38 172.856 302.634 172.856 300.168C172.856 297.702 173.738 295.956 175.286 295.956C176.816 295.956 177.698 297.702 177.698 300.168C177.698 302.634 176.816 304.38 175.286 304.38ZM185.741 306.18C188.441 306.18 190.151 304.668 190.151 302.526C190.151 301.194 189.431 300.15 188.225 299.592C188.945 299.07 189.359 298.242 189.359 297.234C189.359 295.47 187.955 294.156 185.741 294.156C183.527 294.156 182.123 295.47 182.123 297.234C182.123 298.242 182.537 299.07 183.257 299.592C182.051 300.15 181.331 301.194 181.331 302.526C181.331 304.668 183.041 306.18 185.741 306.18ZM185.741 304.398C184.301 304.398 183.455 303.552 183.455 302.454C183.455 301.356 184.265 300.438 185.741 300.438C187.217 300.438 188.027 301.356 188.027 302.454C188.027 303.552 187.181 304.398 185.741 304.398ZM185.741 298.944C184.607 298.944 184.013 298.188 184.013 297.378C184.013 296.532 184.643 295.83 185.741 295.83C186.839 295.83 187.469 296.532 187.469 297.378C187.469 298.188 186.875 298.944 185.741 298.944ZM196.221 306.18C198.885 306.18 200.757 303.696 200.757 300.168C200.757 296.64 198.885 294.156 196.221 294.156C193.539 294.156 191.667 296.64 191.667 300.168C191.667 303.696 193.539 306.18 196.221 306.18ZM196.221 304.38C194.673 304.38 193.791 302.634 193.791 300.168C193.791 297.702 194.673 295.956 196.221 295.956C197.751 295.956 198.633 297.702 198.633 300.168C198.633 302.634 197.751 304.38 196.221 304.38ZM206.677 306.18C209.377 306.18 211.087 304.668 211.087 302.526C211.087 301.194 210.367 300.15 209.161 299.592C209.881 299.07 210.295 298.242 210.295 297.234C210.295 295.47 208.891 294.156 206.677 294.156C204.463 294.156 203.059 295.47 203.059 297.234C203.059 298.242 203.473 299.07 204.193 299.592C202.987 300.15 202.267 301.194 202.267 302.526C202.267 304.668 203.977 306.18 206.677 306.18ZM206.677 304.398C205.237 304.398 204.391 303.552 204.391 302.454C204.391 301.356 205.201 300.438 206.677 300.438C208.153 300.438 208.963 301.356 208.963 302.454C208.963 303.552 208.117 304.398 206.677 304.398ZM206.677 298.944C205.543 298.944 204.949 298.188 204.949 297.378C204.949 296.532 205.579 295.83 206.677 295.83C207.775 295.83 208.405 296.532 208.405 297.378C208.405 298.188 207.811 298.944 206.677 298.944ZM220.266 306H222.264V294.336H220.482L216.792 297.252L217.728 298.674L220.266 296.946V306ZM229.546 294.156C226.828 294.156 225.244 296.028 225.244 298.314C225.244 300.456 226.882 302.202 229.222 302.202C229.348 302.202 229.546 302.166 229.69 302.148L227.368 305.064L228.97 306.234L232.822 301.194C233.452 300.366 233.848 299.268 233.848 298.224C233.848 295.956 232.3 294.156 229.546 294.156ZM229.546 295.938C230.932 295.938 231.724 296.964 231.724 298.26C231.724 299.502 230.86 300.51 229.546 300.51C228.268 300.51 227.368 299.502 227.368 298.26C227.368 296.964 228.214 295.938 229.546 295.938ZM239.741 306.18C242.459 306.18 244.043 304.308 244.043 302.022C244.043 299.88 242.405 298.134 240.065 298.134C239.939 298.134 239.741 298.17 239.597 298.188L241.919 295.272L240.317 294.102L236.465 299.142C235.835 299.97 235.439 301.068 235.439 302.112C235.439 304.38 236.987 306.18 239.741 306.18ZM239.741 304.398C238.355 304.398 237.563 303.372 237.563 302.076C237.563 300.834 238.427 299.826 239.741 299.826C241.019 299.826 241.919 300.834 241.919 302.076C241.919 303.372 241.073 304.398 239.741 304.398ZM254.015 306.18C256.733 306.18 258.317 304.308 258.317 302.022C258.317 299.88 256.679 298.134 254.339 298.134C254.213 298.134 254.015 298.17 253.871 298.188L256.193 295.272L254.591 294.102L250.739 299.142C250.109 299.97 249.713 301.068 249.713 302.112C249.713 304.38 251.261 306.18 254.015 306.18ZM254.015 304.398C252.629 304.398 251.837 303.372 251.837 302.076C251.837 300.834 252.701 299.826 254.015 299.826C255.293 299.826 256.193 300.834 256.193 302.076C256.193 303.372 255.347 304.398 254.015 304.398ZM259.909 306H268.333V304.2H263.023C265.255 302.562 267.973 300.024 267.973 297.63C267.973 295.488 266.335 294.156 264.031 294.156C263.131 294.156 261.493 294.408 260.089 295.992L261.169 297.288C262.267 296.262 263.203 295.956 263.869 295.956C265.147 295.956 265.849 296.766 265.849 297.792C265.849 299.34 264.229 300.924 259.909 304.686V306ZM274.528 306.18C277.246 306.18 278.83 304.308 278.83 302.022C278.83 299.88 277.192 298.134 274.852 298.134C274.726 298.134 274.528 298.17 274.384 298.188L276.706 295.272L275.104 294.102L271.252 299.142C270.622 299.97 270.226 301.068 270.226 302.112C270.226 304.38 271.774 306.18 274.528 306.18ZM274.528 304.398C273.142 304.398 272.35 303.372 272.35 302.076C272.35 300.834 273.214 299.826 274.528 299.826C275.806 299.826 276.706 300.834 276.706 302.076C276.706 303.372 275.86 304.398 274.528 304.398ZM280.422 306H288.846V304.2H283.536C285.768 302.562 288.486 300.024 288.486 297.63C288.486 295.488 286.848 294.156 284.544 294.156C283.644 294.156 282.006 294.408 280.602 295.992L281.682 297.288C282.78 296.262 283.716 295.956 284.382 295.956C285.66 295.956 286.362 296.766 286.362 297.792C286.362 299.34 284.742 300.924 280.422 304.686V306Z" fill="#EC6225"/>
<path d="M169.976 307.8H289.872V308.7H169.976V307.8Z" fill="#EC6225"/>
<path opacity="0.05" d="M187 402C204.673 402 219 387.673 219 370C219 352.327 204.673 338 187 338C169.327 338 155 352.327 155 370C155 387.673 169.327 402 187 402Z" fill="url(#paint2_linear_2_1961)"/>
<path d="M197.5 370C197.5 367.348 196.446 364.804 194.571 362.929C192.696 361.054 190.152 360 187.5 360C184.848 360 182.304 361.054 180.429 362.929C178.553 364.804 177.5 367.348 177.5 370" stroke="url(#paint3_linear_2_1961)" stroke-width="2" stroke-linecap="round" stroke-linejoin="round"/>
<path d="M175 375.547V373.202C175 372.644 175.187 372.103 175.53 371.664C175.873 371.224 176.353 370.912 176.894 370.777L179.069 370.232C179.179 370.204 179.295 370.202 179.406 370.226C179.517 370.25 179.622 370.299 179.712 370.369C179.801 370.439 179.874 370.528 179.924 370.631C179.974 370.733 180 370.846 180 370.959V377.788C180 377.902 179.974 378.015 179.924 378.118C179.874 378.22 179.802 378.31 179.712 378.38C179.622 378.451 179.517 378.5 179.405 378.523C179.294 378.547 179.178 378.545 179.067 378.517L176.892 377.973C176.352 377.838 175.872 377.526 175.529 377.086C175.186 376.647 175 376.106 175 375.548V375.547Z" stroke="url(#paint4_linear_2_1961)" stroke-width="2"/>
<path d="M200 375.547V373.202C200 372.644 199.813 372.103 199.47 371.664C199.127 371.224 198.647 370.912 198.106 370.777L195.931 370.232C195.821 370.204 195.705 370.202 195.594 370.226C195.483 370.25 195.378 370.299 195.288 370.369C195.199 370.439 195.126 370.528 195.076 370.631C195.026 370.733 195 370.846 195 370.959V377.788C195 377.902 195.026 378.015 195.076 378.117C195.125 378.22 195.198 378.31 195.288 378.38C195.378 378.45 195.482 378.499 195.594 378.523C195.705 378.546 195.821 378.544 195.931 378.517L198.106 377.973C198.647 377.838 199.127 377.526 199.47 377.087C199.813 376.647 200 376.106 200 375.548V375.547Z" stroke="url(#paint5_linear_2_1961)" stroke-width="2"/>
<path d="M197.5 378.75V379.375C197.5 380.038 197.237 380.674 196.768 381.143C196.299 381.612 195.663 381.875 195 381.875H190.625" stroke="url(#paint6_linear_2_1961)" stroke-width="2"/>
<path d="M189.375 383.749H185.625C185.128 383.749 184.651 383.552 184.299 383.2C183.947 382.848 183.75 382.372 183.75 381.874C183.75 381.377 183.947 380.9 184.299 380.548C184.651 380.197 185.128 379.999 185.625 379.999H189.375C189.872 379.999 190.349 380.197 190.701 380.548C191.052 380.9 191.25 381.377 191.25 381.874C191.25 382.372 191.052 382.848 190.701 383.2C190.349 383.552 189.872 383.749 189.375 383.749Z" stroke="url(#paint7_linear_2_1961)" stroke-width="2"/>
<path d="M100.483 439H102.571V433.762H108.061V431.98H102.571V429.136H109.069V427.336H100.483V439ZM114.292 439.18C116.92 439.18 119.026 437.128 119.026 434.554C119.026 431.962 116.92 429.91 114.292 429.91C111.664 429.91 109.558 431.962 109.558 434.554C109.558 437.128 111.664 439.18 114.292 439.18ZM114.292 437.254C112.762 437.254 111.592 436.102 111.592 434.554C111.592 432.988 112.762 431.836 114.292 431.836C115.822 431.836 116.992 432.988 116.992 434.554C116.992 436.102 115.822 437.254 114.292 437.254ZM120.728 439H122.726V435.364C122.726 433.024 123.986 432.088 125.948 432.088V429.91C124.04 429.91 123.068 430.954 122.726 431.854V430.09H120.728V439ZM137.232 439.18C138.906 439.18 140.382 438.568 141.462 437.578L140.184 436.138C139.428 436.876 138.384 437.29 137.25 437.29C134.964 437.29 133.272 435.4 133.272 433.15C133.272 430.918 134.964 429.046 137.376 429.046C138.294 429.046 139.158 429.316 139.95 429.928L141.156 428.524C140.13 427.66 138.744 427.156 137.232 427.156C133.704 427.156 131.094 429.838 131.094 433.15C131.094 436.498 133.704 439.18 137.232 439.18ZM145.832 439.18C146.912 439.18 148.154 438.604 148.694 437.632V439H150.584V430.09H148.586V434.824C148.586 436.102 147.848 437.254 146.462 437.254C145.22 437.254 144.59 436.642 144.59 435.22V430.09H142.592V435.508C142.592 437.848 143.474 439.18 145.832 439.18ZM155.711 439.18C157.367 439.18 159.509 438.424 159.509 436.336C159.509 434.5 157.781 433.834 156.125 433.474C155.333 433.312 154.595 433.168 154.595 432.556C154.595 432.088 155.261 431.782 155.927 431.782C156.809 431.782 157.565 431.998 158.357 432.448L159.095 430.828C158.123 430.252 157.241 429.91 155.909 429.91C154.343 429.91 152.561 430.846 152.561 432.592C152.561 434.338 154.001 434.842 155.693 435.31C156.575 435.562 157.475 435.724 157.475 436.372C157.475 437.002 156.521 437.308 155.711 437.308C154.379 437.308 153.461 436.714 152.885 436.246L152.129 437.884C152.615 438.352 153.875 439.18 155.711 439.18ZM164.363 439.18C165.371 439.18 166.091 438.784 166.505 438.514L165.911 437.02C165.911 437.02 165.317 437.452 164.615 437.452C164.111 437.452 163.661 437.146 163.661 436.192V431.728H166.343V430.09H163.661V427.93L161.663 428.344V430.09H160.349V431.728H161.663V436.138C161.663 438.19 162.545 439.18 164.363 439.18ZM172.16 439.18C174.788 439.18 176.894 437.128 176.894 434.554C176.894 431.962 174.788 429.91 172.16 429.91C169.532 429.91 167.426 431.962 167.426 434.554C167.426 437.128 169.532 439.18 172.16 439.18ZM172.16 437.254C170.63 437.254 169.46 436.102 169.46 434.554C169.46 432.988 170.63 431.836 172.16 431.836C173.69 431.836 174.86 432.988 174.86 434.554C174.86 436.102 173.69 437.254 172.16 437.254ZM178.595 439H180.593V434.176C180.593 432.97 181.295 431.836 182.627 431.836C184.193 431.836 184.463 432.898 184.463 434.14V439H186.461V434.05C186.461 432.844 187.199 431.836 188.477 431.836C190.043 431.836 190.313 432.898 190.313 434.14V439H192.311V433.87C192.311 431.35 191.267 429.91 188.927 429.91C187.865 429.91 186.605 430.558 186.011 431.602C185.543 430.522 184.607 429.91 183.203 429.91C182.105 429.91 181.061 430.576 180.593 431.404V430.09H178.595V439ZM198.704 439.18C199.892 439.18 201.08 438.802 202.088 438.118L201.296 436.642C200.576 437.146 199.64 437.416 198.74 437.416C197.408 437.416 196.256 436.678 195.968 435.256H202.718C202.718 435.256 202.772 434.86 202.772 434.482C202.772 431.98 200.864 429.91 198.488 429.91C195.896 429.91 193.898 431.998 193.898 434.554C193.898 437.488 196.166 439.18 198.704 439.18ZM195.95 433.78C196.22 432.502 197.228 431.656 198.38 431.656C199.604 431.656 200.63 432.502 200.828 433.78H195.95ZM204.487 439H206.485V435.364C206.485 433.024 207.745 432.088 209.707 432.088V429.91C207.799 429.91 206.827 430.954 206.485 431.854V430.09H204.487V439ZM219.498 439.18C221.802 439.18 224.214 438.082 224.214 435.634C224.214 433.366 222.072 432.538 219.858 432.016C218.454 431.674 217.41 431.368 217.41 430.432C217.41 429.37 218.742 429.046 219.516 429.046C220.722 429.046 221.802 429.352 222.846 430.018L223.656 428.416C222.486 427.624 221.19 427.156 219.516 427.156C217.356 427.156 215.286 428.272 215.286 430.45C215.286 432.772 217.5 433.456 219.642 433.96C220.83 434.248 222.036 434.572 222.036 435.634C222.036 436.696 220.776 437.29 219.516 437.29C217.77 437.29 216.6 436.696 215.646 435.922L214.836 437.506C215.61 438.226 216.96 439.18 219.498 439.18ZM230.556 439.18C231.744 439.18 232.932 438.802 233.94 438.118L233.148 436.642C232.428 437.146 231.492 437.416 230.592 437.416C229.26 437.416 228.108 436.678 227.82 435.256H234.57C234.57 435.256 234.624 434.86 234.624 434.482C234.624 431.98 232.716 429.91 230.34 429.91C227.748 429.91 225.75 431.998 225.75 434.554C225.75 437.488 228.018 439.18 230.556 439.18ZM227.802 433.78C228.072 432.502 229.08 431.656 230.232 431.656C231.456 431.656 232.482 432.502 232.68 433.78H227.802ZM236.339 439H238.337V435.364C238.337 433.024 239.597 432.088 241.559 432.088V429.91C239.651 429.91 238.679 430.954 238.337 431.854V430.09H236.339V439ZM245.792 439.018H247.718L251.39 430.09H249.392L247.592 434.608C247.142 435.724 246.764 436.984 246.764 436.984C246.764 436.984 246.404 435.742 245.936 434.59L244.118 430.09H242.12L245.792 439.018ZM252.546 439H254.544V430.09H252.546V439ZM253.536 428.794C254.202 428.794 254.76 428.254 254.76 427.588C254.76 426.922 254.202 426.364 253.536 426.364C252.87 426.364 252.33 426.922 252.33 427.588C252.33 428.254 252.87 428.794 253.536 428.794ZM260.982 439.18C262.278 439.18 263.484 438.73 264.348 437.992L263.25 436.48C262.728 436.966 261.9 437.254 261.072 437.254C259.362 437.254 258.282 436.084 258.282 434.554C258.282 432.97 259.452 431.836 261.018 431.836C261.81 431.836 262.476 432.07 262.926 432.484L264.168 431.062C263.322 430.342 262.206 429.91 260.982 429.91C258.354 429.91 256.248 431.962 256.248 434.554C256.248 437.146 258.354 439.18 260.982 439.18ZM269.984 439.18C271.172 439.18 272.36 438.802 273.368 438.118L272.576 436.642C271.856 437.146 270.92 437.416 270.02 437.416C268.688 437.416 267.536 436.678 267.248 435.256H273.998C273.998 435.256 274.052 434.86 274.052 434.482C274.052 431.98 272.144 429.91 269.768 429.91C267.176 429.91 265.178 431.998 265.178 434.554C265.178 437.488 267.446 439.18 269.984 439.18ZM267.23 433.78C267.5 432.502 268.508 431.656 269.66 431.656C270.884 431.656 271.91 432.502 272.108 433.78H267.23Z" fill="#370050"/>
<path d="M69.9969 474H71.4369V464.766C71.4369 464.766 71.7609 465.324 72.2829 466.062L76.0089 471.318L79.7169 466.098C80.2749 465.324 80.5809 464.766 80.5809 464.766V474H82.0209V462.336H80.7429L77.8989 466.314C77.2869 467.178 76.0089 468.996 76.0089 468.996C76.0089 468.996 74.7309 467.16 74.1189 466.296L71.2749 462.336H69.9969V474ZM88.777 474.18C91.351 474.18 93.385 472.164 93.385 469.626C93.385 467.07 91.351 465.054 88.777 465.054C86.203 465.054 84.169 467.07 84.169 469.626C84.169 472.164 86.203 474.18 88.777 474.18ZM88.777 472.848C86.959 472.848 85.573 471.462 85.573 469.626C85.573 467.772 86.959 466.386 88.777 466.386C90.595 466.386 91.981 467.772 91.981 469.626C91.981 471.462 90.595 472.848 88.777 472.848ZM95.3219 474H96.6899V469.068C96.6899 467.61 97.7879 466.386 99.3539 466.386C100.938 466.386 101.532 467.25 101.532 468.87V474H102.9V468.69C102.9 466.386 101.928 465.054 99.7319 465.054C98.4359 465.054 97.3019 465.666 96.6899 466.728V465.234H95.3219V474ZM108.84 474.18C110.262 474.18 111.54 473.622 112.188 472.47V474H113.502V462.156H112.134V466.764C111.486 465.63 110.244 465.054 108.84 465.054C106.41 465.054 104.7 467.052 104.7 469.626C104.7 472.164 106.41 474.18 108.84 474.18ZM109.146 472.848C107.4 472.848 106.104 471.48 106.104 469.626C106.104 467.754 107.4 466.386 109.146 466.386C110.82 466.386 112.134 467.79 112.134 469.626C112.134 471.462 110.82 472.848 109.146 472.848ZM119.58 474.18C120.984 474.18 122.226 473.622 122.874 472.47V474H124.242V465.234H122.874V466.764C122.226 465.63 120.984 465.054 119.58 465.054C117.15 465.054 115.44 467.052 115.44 469.626C115.44 472.164 117.15 474.18 119.58 474.18ZM119.886 472.848C118.14 472.848 116.844 471.48 116.844 469.626C116.844 467.754 118.14 466.386 119.886 466.386C121.56 466.386 122.874 467.79 122.874 469.626C122.874 471.462 121.56 472.848 119.886 472.848ZM127.153 476.646C128.179 476.646 129.421 476.502 130.375 474.432L134.551 465.234H133.147L130.537 471.066C130.393 471.39 130.123 472.11 130.123 472.11C130.123 472.11 129.925 471.534 129.727 471.12L126.973 465.234H125.551L129.493 473.424L129.295 473.82C128.701 475.08 128.107 475.35 127.153 475.35V476.646ZM139.201 470.274H146.023V469.104H139.201V470.274ZM151.911 474H153.351V468.384H159.129V467.142H153.351V463.596H160.281V462.336H151.911V474ZM161.17 474H162.538V469.842C162.538 467.7 163.87 466.548 165.922 466.548V465.054C164.176 465.054 163.042 465.936 162.538 467.088V465.234H161.17V474ZM167.498 474H168.866V465.234H167.498V474ZM168.182 463.668C168.686 463.668 169.1 463.272 169.1 462.768C169.1 462.264 168.686 461.85 168.182 461.85C167.678 461.85 167.282 462.264 167.282 462.768C167.282 463.272 167.678 463.668 168.182 463.668ZM174.952 474.18C176.374 474.18 177.652 473.622 178.3 472.47V474H179.614V462.156H178.246V466.764C177.598 465.63 176.356 465.054 174.952 465.054C172.522 465.054 170.812 467.052 170.812 469.626C170.812 472.164 172.522 474.18 174.952 474.18ZM175.258 472.848C173.512 472.848 172.216 471.48 172.216 469.626C172.216 467.754 173.512 466.386 175.258 466.386C176.932 466.386 178.246 467.79 178.246 469.626C178.246 471.462 176.932 472.848 175.258 472.848ZM185.692 474.18C187.096 474.18 188.338 473.622 188.986 472.47V474H190.354V465.234H188.986V466.764C188.338 465.63 187.096 465.054 185.692 465.054C183.262 465.054 181.552 467.052 181.552 469.626C181.552 472.164 183.262 474.18 185.692 474.18ZM185.998 472.848C184.252 472.848 182.956 471.48 182.956 469.626C182.956 467.754 184.252 466.386 185.998 466.386C187.672 466.386 188.986 467.79 188.986 469.626C188.986 471.462 187.672 472.848 185.998 472.848ZM193.264 476.646C194.29 476.646 195.532 476.502 196.486 474.432L200.662 465.234H199.258L196.648 471.066C196.504 471.39 196.234 472.11 196.234 472.11C196.234 472.11 196.036 471.534 195.838 471.12L193.084 465.234H191.662L195.604 473.424L195.406 473.82C194.812 475.08 194.218 475.35 193.264 475.35V476.646ZM202.778 467.736C203.3 467.736 203.732 467.304 203.732 466.782C203.732 466.26 203.3 465.828 202.778 465.828C202.256 465.828 201.842 466.26 201.842 466.782C201.842 467.304 202.256 467.736 202.778 467.736ZM202.778 474.18C203.3 474.18 203.732 473.748 203.732 473.226C203.732 472.704 203.3 472.272 202.778 472.272C202.256 472.272 201.842 472.704 201.842 473.226C201.842 473.748 202.256 474.18 202.778 474.18ZM213.786 474.18C216.324 474.18 218.07 472.65 218.07 470.526C218.07 469.032 217.152 467.898 215.73 467.376C216.576 466.926 217.116 466.062 217.116 465.018C217.116 463.38 215.784 462.156 213.786 462.156C211.788 462.156 210.438 463.38 210.438 465.018C210.438 466.062 210.978 466.926 211.824 467.376C210.402 467.898 209.502 469.032 209.502 470.526C209.502 472.65 211.23 474.18 213.786 474.18ZM213.786 472.938C212.094 472.938 210.96 471.876 210.96 470.472C210.96 469.086 212.094 467.97 213.786 467.97C215.478 467.97 216.594 469.086 216.594 470.472C216.594 471.876 215.478 472.938 213.786 472.938ZM213.786 466.908C212.562 466.908 211.77 466.116 211.77 465.108C211.77 464.118 212.58 463.326 213.786 463.326C214.992 463.326 215.802 464.118 215.802 465.108C215.802 466.116 214.992 466.908 213.786 466.908ZM223.819 474.18C225.223 474.18 226.465 473.622 227.113 472.47V474H228.481V465.234H227.113V466.764C226.465 465.63 225.223 465.054 223.819 465.054C221.389 465.054 219.679 467.052 219.679 469.626C219.679 472.164 221.389 474.18 223.819 474.18ZM224.125 472.848C222.379 472.848 221.083 471.48 221.083 469.626C221.083 467.754 222.379 466.386 224.125 466.386C225.799 466.386 227.113 467.79 227.113 469.626C227.113 471.462 225.799 472.848 224.125 472.848ZM230.779 474H232.147V468.96C232.147 467.682 233.065 466.386 234.595 466.386C236.179 466.386 236.701 467.376 236.701 468.87V474H238.087V468.888C238.087 467.574 239.023 466.386 240.499 466.386C242.101 466.386 242.623 467.376 242.623 468.87V474H244.009V468.69C244.009 466.278 242.893 465.054 240.787 465.054C239.761 465.054 238.393 465.63 237.763 466.908C237.349 465.666 236.359 465.054 234.955 465.054C233.731 465.054 232.633 465.792 232.147 466.746V465.234H230.779V474ZM249.504 470.274H256.326V469.104H249.504V470.274ZM265.166 474H266.534V462.336H265.328L261.962 465.018L262.61 466.008L265.166 464.172V474ZM274.081 474.18C276.637 474.18 278.455 471.678 278.455 468.168C278.455 464.658 276.637 462.156 274.081 462.156C271.507 462.156 269.689 464.658 269.689 468.168C269.689 471.678 271.507 474.18 274.081 474.18ZM274.081 472.92C272.299 472.92 271.147 470.922 271.147 468.168C271.147 465.396 272.299 463.416 274.081 463.416C275.845 463.416 276.979 465.396 276.979 468.168C276.979 470.922 275.845 472.92 274.081 472.92ZM280.42 476.538H281.788V472.47C282.436 473.604 283.696 474.18 285.082 474.18C287.512 474.18 289.222 472.164 289.222 469.608C289.222 467.052 287.512 465.054 285.082 465.054C283.66 465.054 282.382 465.612 281.734 466.746V465.234H280.42V476.538ZM284.776 472.848C283.102 472.848 281.788 471.444 281.788 469.608C281.788 467.772 283.102 466.386 284.776 466.386C286.522 466.386 287.818 467.754 287.818 469.608C287.818 471.48 286.522 472.848 284.776 472.848ZM291.16 474H292.528V468.96C292.528 467.682 293.446 466.386 294.976 466.386C296.56 466.386 297.082 467.376 297.082 468.87V474H298.468V468.888C298.468 467.574 299.404 466.386 300.88 466.386C302.482 466.386 303.004 467.376 303.004 468.87V474H304.39V468.69C304.39 466.278 303.274 465.054 301.168 465.054C300.142 465.054 298.774 465.63 298.144 466.908C297.73 465.666 296.74 465.054 295.336 465.054C294.112 465.054 293.014 465.792 292.528 466.746V465.234H291.16V474ZM101.069 501.072H102.509L104.993 493.008C105.227 492.252 105.389 491.208 105.389 491.208C105.389 491.208 105.569 492.252 105.803 493.008L108.269 501.072H109.709L113.615 489.336H112.157L109.439 497.526C109.205 498.246 108.971 499.092 108.971 499.092C108.971 499.092 108.791 498.246 108.575 497.526L106.109 489.3H104.669L102.203 497.526C101.987 498.228 101.807 499.092 101.807 499.092C101.807 499.092 101.573 498.228 101.339 497.526L98.6213 489.336H97.1813L101.069 501.072ZM118.484 501.18C119.69 501.18 120.86 500.766 121.796 500.028L121.202 499.02C120.482 499.614 119.492 499.956 118.502 499.956C116.882 499.956 115.532 498.858 115.316 497.112H122.462C122.462 497.094 122.498 496.824 122.498 496.572C122.498 494.07 120.644 492.054 118.304 492.054C115.802 492.054 113.894 494.088 113.894 496.626C113.894 499.398 116 501.18 118.484 501.18ZM115.316 496.068C115.514 494.43 116.738 493.278 118.232 493.278C119.762 493.278 121.004 494.448 121.148 496.068H115.316ZM128.679 501.18C129.885 501.18 131.055 500.766 131.991 500.028L131.397 499.02C130.677 499.614 129.687 499.956 128.697 499.956C127.077 499.956 125.727 498.858 125.511 497.112H132.657C132.657 497.094 132.693 496.824 132.693 496.572C132.693 494.07 130.839 492.054 128.499 492.054C125.997 492.054 124.089 494.088 124.089 496.626C124.089 499.398 126.195 501.18 128.679 501.18ZM125.511 496.068C125.709 494.43 126.933 493.278 128.427 493.278C129.957 493.278 131.199 494.448 131.343 496.068H125.511ZM134.644 501H136.012V498.966L137.686 497.076L140.926 501H142.618L138.532 496.122L142.024 492.234H140.296L136.012 497.13V489.156H134.644V501ZM147.646 501.18C148.852 501.18 150.022 500.766 150.958 500.028L150.364 499.02C149.644 499.614 148.654 499.956 147.664 499.956C146.044 499.956 144.694 498.858 144.478 497.112H151.624C151.624 497.094 151.66 496.824 151.66 496.572C151.66 494.07 149.806 492.054 147.466 492.054C144.964 492.054 143.056 494.088 143.056 496.626C143.056 499.398 145.162 501.18 147.646 501.18ZM144.478 496.068C144.676 494.43 145.9 493.278 147.394 493.278C148.924 493.278 150.166 494.448 150.31 496.068H144.478ZM153.611 501H154.979V496.068C154.979 494.61 156.077 493.386 157.643 493.386C159.227 493.386 159.821 494.25 159.821 495.87V501H161.189V495.69C161.189 493.386 160.217 492.054 158.021 492.054C156.725 492.054 155.591 492.666 154.979 493.728V492.234H153.611V501ZM167.129 501.18C168.551 501.18 169.829 500.622 170.477 499.47V501H171.791V489.156H170.423V493.764C169.775 492.63 168.533 492.054 167.129 492.054C164.699 492.054 162.989 494.052 162.989 496.626C162.989 499.164 164.699 501.18 167.129 501.18ZM167.435 499.848C165.689 499.848 164.393 498.48 164.393 496.626C164.393 494.754 165.689 493.386 167.435 493.386C169.109 493.386 170.423 494.79 170.423 496.626C170.423 498.462 169.109 499.848 167.435 499.848ZM177.042 501.18C178.752 501.18 180.642 500.352 180.642 498.498C180.642 496.77 179.004 496.176 177.42 495.816C176.394 495.6 175.422 495.402 175.422 494.538C175.422 493.854 176.268 493.35 177.168 493.35C178.086 493.35 178.86 493.602 179.598 494.106L180.138 492.99C179.238 492.378 178.356 492.054 177.15 492.054C175.674 492.054 174.018 492.972 174.018 494.556C174.018 496.23 175.494 496.68 177.114 497.094C178.176 497.364 179.238 497.616 179.238 498.534C179.238 499.326 178.248 499.884 177.042 499.884C175.764 499.884 174.828 499.362 174.18 498.732L173.622 499.848C174.125 500.37 175.26 501.18 177.042 501.18ZM183.301 494.736C183.823 494.736 184.255 494.304 184.255 493.782C184.255 493.26 183.823 492.828 183.301 492.828C182.779 492.828 182.365 493.26 182.365 493.782C182.365 494.304 182.779 494.736 183.301 494.736ZM183.301 501.18C183.823 501.18 184.255 500.748 184.255 500.226C184.255 499.704 183.823 499.272 183.301 499.272C182.779 499.272 182.365 499.704 182.365 500.226C182.365 500.748 182.779 501.18 183.301 501.18ZM194.309 489.156C191.753 489.156 190.097 490.992 190.097 493.296C190.097 495.51 191.771 497.274 194.111 497.274C194.453 497.274 194.795 497.184 194.957 497.13L192.185 500.388L193.283 501.216L197.423 496.194C198.089 495.384 198.521 494.322 198.521 493.242C198.521 490.974 196.919 489.156 194.309 489.156ZM194.309 490.398C195.965 490.398 197.063 491.658 197.063 493.26C197.063 494.772 195.893 496.086 194.309 496.086C192.725 496.086 191.555 494.844 191.555 493.26C191.555 491.64 192.689 490.398 194.309 490.398ZM204.36 501.18C205.764 501.18 207.006 500.622 207.654 499.47V501H209.022V492.234H207.654V493.764C207.006 492.63 205.764 492.054 204.36 492.054C201.93 492.054 200.22 494.052 200.22 496.626C200.22 499.164 201.93 501.18 204.36 501.18ZM204.666 499.848C202.92 499.848 201.624 498.48 201.624 496.626C201.624 494.754 202.92 493.386 204.666 493.386C206.34 493.386 207.654 494.79 207.654 496.626C207.654 498.462 206.34 499.848 204.666 499.848ZM211.32 501H212.688V495.96C212.688 494.682 213.606 493.386 215.136 493.386C216.72 493.386 217.242 494.376 217.242 495.87V501H218.628V495.888C218.628 494.574 219.564 493.386 221.04 493.386C222.642 493.386 223.164 494.376 223.164 495.87V501H224.55V495.69C224.55 493.278 223.434 492.054 221.328 492.054C220.302 492.054 218.934 492.63 218.304 493.908C217.89 492.666 216.9 492.054 215.496 492.054C214.272 492.054 213.174 492.792 212.688 493.746V492.234H211.32V501ZM230.045 497.274H236.867V496.104H230.045V497.274ZM243.367 501H244.879L250.405 490.254V489.336H242.089V490.578H248.803L243.367 501ZM252.101 503.538H253.469V499.47C254.117 500.604 255.377 501.18 256.763 501.18C259.193 501.18 260.903 499.164 260.903 496.608C260.903 494.052 259.193 492.054 256.763 492.054C255.341 492.054 254.063 492.612 253.415 493.746V492.234H252.101V503.538ZM256.457 499.848C254.783 499.848 253.469 498.444 253.469 496.608C253.469 494.772 254.783 493.386 256.457 493.386C258.203 493.386 259.499 494.754 259.499 496.608C259.499 498.48 258.203 499.848 256.457 499.848ZM262.841 501H264.209V495.96C264.209 494.682 265.127 493.386 266.657 493.386C268.241 493.386 268.763 494.376 268.763 495.87V501H270.149V495.888C270.149 494.574 271.085 493.386 272.561 493.386C274.163 493.386 274.685 494.376 274.685 495.87V501H276.071V495.69C276.071 493.278 274.955 492.054 272.849 492.054C271.823 492.054 270.455 492.63 269.825 493.908C269.411 492.666 268.421 492.054 267.017 492.054C265.793 492.054 264.695 492.792 264.209 493.746V492.234H262.841V501Z" fill="#524658"/>
<path d="M89.8939 536.18C91.5679 536.18 93.0439 535.568 94.1239 534.578L92.8459 533.138C92.0899 533.876 91.0459 534.29 89.9119 534.29C87.6259 534.29 85.9339 532.4 85.9339 530.15C85.9339 527.918 87.6259 526.046 90.0379 526.046C90.9559 526.046 91.8199 526.316 92.6119 526.928L93.8179 525.524C92.7919 524.66 91.4059 524.156 89.8939 524.156C86.3659 524.156 83.7559 526.838 83.7559 530.15C83.7559 533.498 86.3659 536.18 89.8939 536.18ZM99.1961 536.18C100.402 536.18 101.464 535.712 102.166 534.884V536H104.164V527.09H102.166V528.224C101.464 527.396 100.402 526.91 99.1961 526.91C96.7481 526.91 95.0741 528.98 95.0741 531.554C95.0741 534.11 96.7481 536.18 99.1961 536.18ZM99.7001 534.254C98.1881 534.254 97.1081 533.12 97.1081 531.554C97.1081 529.988 98.1881 528.836 99.7001 528.836C101.122 528.836 102.166 529.988 102.166 531.554C102.166 533.138 101.104 534.254 99.7001 534.254ZM106.173 536H108.171V524.156H106.173V536ZM110.181 536H112.179V524.156H110.181V536ZM121.24 536.18C122.32 536.18 123.562 535.604 124.102 534.632V536H125.992V527.09H123.994V531.824C123.994 533.102 123.256 534.254 121.87 534.254C120.628 534.254 119.998 533.642 119.998 532.22V527.09H118V532.508C118 534.848 118.882 536.18 121.24 536.18ZM131.119 536.18C132.775 536.18 134.917 535.424 134.917 533.336C134.917 531.5 133.189 530.834 131.533 530.474C130.741 530.312 130.003 530.168 130.003 529.556C130.003 529.088 130.669 528.782 131.335 528.782C132.217 528.782 132.973 528.998 133.765 529.448L134.503 527.828C133.531 527.252 132.649 526.91 131.317 526.91C129.751 526.91 127.969 527.846 127.969 529.592C127.969 531.338 129.409 531.842 131.101 532.31C131.983 532.562 132.883 532.724 132.883 533.372C132.883 534.002 131.929 534.308 131.119 534.308C129.787 534.308 128.869 533.714 128.293 533.246L127.537 534.884C128.023 535.352 129.283 536.18 131.119 536.18ZM144.878 536.18C147.506 536.18 149.612 534.128 149.612 531.554C149.612 528.962 147.506 526.91 144.878 526.91C142.25 526.91 140.144 528.962 140.144 531.554C140.144 534.128 142.25 536.18 144.878 536.18ZM144.878 534.254C143.348 534.254 142.178 533.102 142.178 531.554C142.178 529.988 143.348 528.836 144.878 528.836C146.408 528.836 147.578 529.988 147.578 531.554C147.578 533.102 146.408 534.254 144.878 534.254ZM151.314 536H153.312V531.338C153.312 529.862 154.266 528.836 155.58 528.836C157.074 528.836 157.398 529.682 157.398 531.14V536H159.396V530.888C159.396 528.512 158.604 526.91 156.192 526.91C155.004 526.91 153.978 527.378 153.312 528.368V527.09H151.314V536ZM162.54 529.988C163.224 529.988 163.8 529.43 163.8 528.746C163.8 528.044 163.224 527.486 162.54 527.486C161.856 527.486 161.298 528.044 161.298 528.746C161.298 529.43 161.838 529.988 162.54 529.988ZM162.54 536.18C163.224 536.18 163.8 535.622 163.8 534.938C163.8 534.236 163.224 533.678 162.54 533.678C161.856 533.678 161.298 534.236 161.298 534.938C161.298 535.622 161.838 536.18 162.54 536.18Z" fill="#524658"/>
<path d="M174.125 536.18C176.789 536.18 178.661 533.696 178.661 530.168C178.661 526.64 176.789 524.156 174.125 524.156C171.443 524.156 169.571 526.64 169.571 530.168C169.571 533.696 171.443 536.18 174.125 536.18ZM174.125 534.38C172.577 534.38 171.695 532.634 171.695 530.168C171.695 527.702 172.577 525.956 174.125 525.956C175.655 525.956 176.537 527.702 176.537 530.168C176.537 532.634 175.655 534.38 174.125 534.38ZM184.581 536.18C187.281 536.18 188.991 534.668 188.991 532.526C188.991 531.194 188.271 530.15 187.065 529.592C187.785 529.07 188.199 528.242 188.199 527.234C188.199 525.47 186.795 524.156 184.581 524.156C182.367 524.156 180.963 525.47 180.963 527.234C180.963 528.242 181.377 529.07 182.097 529.592C180.891 530.15 180.171 531.194 180.171 532.526C180.171 534.668 181.881 536.18 184.581 536.18ZM184.581 534.398C183.141 534.398 182.295 533.552 182.295 532.454C182.295 531.356 183.105 530.438 184.581 530.438C186.057 530.438 186.867 531.356 186.867 532.454C186.867 533.552 186.021 534.398 184.581 534.398ZM184.581 528.944C183.447 528.944 182.853 528.188 182.853 527.378C182.853 526.532 183.483 525.83 184.581 525.83C185.679 525.83 186.309 526.532 186.309 527.378C186.309 528.188 185.715 528.944 184.581 528.944ZM195.061 536.18C197.725 536.18 199.597 533.696 199.597 530.168C199.597 526.64 197.725 524.156 195.061 524.156C192.379 524.156 190.507 526.64 190.507 530.168C190.507 533.696 192.379 536.18 195.061 536.18ZM195.061 534.38C193.513 534.38 192.631 532.634 192.631 530.168C192.631 527.702 193.513 525.956 195.061 525.956C196.591 525.956 197.473 527.702 197.473 530.168C197.473 532.634 196.591 534.38 195.061 534.38ZM205.661 536.18C208.325 536.18 210.197 533.696 210.197 530.168C210.197 526.64 208.325 524.156 205.661 524.156C202.979 524.156 201.107 526.64 201.107 530.168C201.107 533.696 202.979 536.18 205.661 536.18ZM205.661 534.38C204.113 534.38 203.231 532.634 203.231 530.168C203.231 527.702 204.113 525.956 205.661 525.956C207.191 525.956 208.073 527.702 208.073 530.168C208.073 532.634 207.191 534.38 205.661 534.38ZM220.198 536.18C222.862 536.18 224.734 533.696 224.734 530.168C224.734 526.64 222.862 524.156 220.198 524.156C217.516 524.156 215.644 526.64 215.644 530.168C215.644 533.696 217.516 536.18 220.198 536.18ZM220.198 534.38C218.65 534.38 217.768 532.634 217.768 530.168C217.768 527.702 218.65 525.956 220.198 525.956C221.728 525.956 222.61 527.702 222.61 530.168C222.61 532.634 221.728 534.38 220.198 534.38ZM230.653 536.18C233.353 536.18 235.063 534.668 235.063 532.526C235.063 531.194 234.343 530.15 233.137 529.592C233.857 529.07 234.271 528.242 234.271 527.234C234.271 525.47 232.867 524.156 230.653 524.156C228.439 524.156 227.035 525.47 227.035 527.234C227.035 528.242 227.449 529.07 228.169 529.592C226.963 530.15 226.243 531.194 226.243 532.526C226.243 534.668 227.953 536.18 230.653 536.18ZM230.653 534.398C229.213 534.398 228.367 533.552 228.367 532.454C228.367 531.356 229.177 530.438 230.653 530.438C232.129 530.438 232.939 531.356 232.939 532.454C232.939 533.552 232.093 534.398 230.653 534.398ZM230.653 528.944C229.519 528.944 228.925 528.188 228.925 527.378C228.925 526.532 229.555 525.83 230.653 525.83C231.751 525.83 232.381 526.532 232.381 527.378C232.381 528.188 231.787 528.944 230.653 528.944ZM236.723 536H245.147V534.2H239.837C242.069 532.562 244.787 530.024 244.787 527.63C244.787 525.488 243.149 524.156 240.845 524.156C239.945 524.156 238.307 524.408 236.903 525.992L237.983 527.288C239.081 526.262 240.017 525.956 240.683 525.956C241.961 525.956 242.663 526.766 242.663 527.792C242.663 529.34 241.043 530.924 236.723 534.686V536ZM255.424 536.18C258.088 536.18 259.96 533.696 259.96 530.168C259.96 526.64 258.088 524.156 255.424 524.156C252.742 524.156 250.87 526.64 250.87 530.168C250.87 533.696 252.742 536.18 255.424 536.18ZM255.424 534.38C253.876 534.38 252.994 532.634 252.994 530.168C252.994 527.702 253.876 525.956 255.424 525.956C256.954 525.956 257.836 527.702 257.836 530.168C257.836 532.634 256.954 534.38 255.424 534.38ZM262.766 536H264.944L270.02 525.65V524.336H261.362V526.136H267.716L262.766 536ZM272.627 536H274.805L279.881 525.65V524.336H271.223V526.136H277.577L272.627 536ZM285.747 536.18C288.411 536.18 290.283 533.696 290.283 530.168C290.283 526.64 288.411 524.156 285.747 524.156C283.065 524.156 281.193 526.64 281.193 530.168C281.193 533.696 283.065 536.18 285.747 536.18ZM285.747 534.38C284.199 534.38 283.317 532.634 283.317 530.168C283.317 527.702 284.199 525.956 285.747 525.956C287.277 525.956 288.159 527.702 288.159 530.168C288.159 532.634 287.277 534.38 285.747 534.38Z" fill="#EC6225"/>
<path d="M168.815 537.8H291.039V538.7H168.815V537.8Z" fill="#EC6225"/>
<path d="M198.311 608.178C200.028 606.648 201 604.609 201 602.493C201 600.244 199.947 598.14 198.035 596.57C196.175 595.042 193.712 594.2 191.1 594.2C188.488 594.2 186.025 595.042 184.165 596.57C182.253 598.14 181.2 600.244 181.2 602.493C181.2 604.742 182.253 606.845 184.165 608.416C186.025 609.944 188.488 610.786 191.1 610.786C191.448 610.786 191.798 610.77 192.145 610.74L192.738 611.254C194.782 613.025 197.396 614 200.1 614H201V612.084L200.736 611.821C199.696 610.778 198.872 609.54 198.311 608.178ZM193.917 609.894L192.727 608.862L192.33 608.911C191.922 608.96 191.511 608.985 191.1 608.986C186.634 608.986 183 606.073 183 602.493C183 598.913 186.634 596 191.1 596C195.566 596 199.2 598.913 199.2 602.493C199.2 604.276 198.31 605.942 196.694 607.182L196.176 607.579L196.415 608.256C196.905 609.639 197.625 610.929 198.546 612.071C196.832 611.785 195.23 611.031 193.917 609.894Z" fill="url(#paint8_linear_2_1961)"/>
<path d="M176.485 603.958C177.328 602.891 177.989 601.694 178.443 600.413L178.681 599.739L178.163 599.342C176.639 598.173 175.8 596.603 175.8 594.923C175.8 591.547 179.232 588.8 183.45 588.8C186.553 588.8 189.23 590.287 190.429 592.417C190.652 592.406 190.875 592.4 191.1 592.4C191.551 592.4 191.998 592.422 192.44 592.466C191.977 591.266 191.173 590.17 190.067 589.262C188.291 587.803 185.942 587 183.45 587C180.958 587 178.608 587.803 176.833 589.262C175.006 590.762 174 592.773 174 594.923C174 596.937 174.92 598.877 176.545 600.337C176.015 601.613 175.24 602.774 174.264 603.753L174 604.016V605.9H174.9C176.564 605.9 178.206 605.512 179.694 604.768C179.531 604.149 179.435 603.515 179.409 602.875C178.505 603.405 177.516 603.771 176.485 603.958Z" fill="url(#paint9_linear_2_1961)"/>
<path opacity="0.05" d="M187 632C204.673 632 219 617.673 219 600C219 582.327 204.673 568 187 568C169.327 568 155 582.327 155 600C155 617.673 169.327 632 187 632Z" fill="url(#paint10_linear_2_1961)"/>
<path d="M150.695 669H159.767V667.2H152.783V657.336H150.695V669ZM161.412 669H163.41V660.09H161.412V669ZM162.402 658.794C163.068 658.794 163.626 658.254 163.626 657.588C163.626 656.922 163.068 656.364 162.402 656.364C161.736 656.364 161.196 656.922 161.196 657.588C161.196 658.254 161.736 658.794 162.402 658.794ZM168.228 669.018H170.154L173.826 660.09H171.828L170.028 664.608C169.578 665.724 169.2 666.984 169.2 666.984C169.2 666.984 168.84 665.742 168.372 664.59L166.554 660.09H164.556L168.228 669.018ZM179.166 669.18C180.354 669.18 181.542 668.802 182.55 668.118L181.758 666.642C181.038 667.146 180.102 667.416 179.202 667.416C177.87 667.416 176.718 666.678 176.43 665.256H183.18C183.18 665.256 183.234 664.86 183.234 664.482C183.234 661.98 181.326 659.91 178.95 659.91C176.358 659.91 174.36 661.998 174.36 664.554C174.36 667.488 176.628 669.18 179.166 669.18ZM176.412 663.78C176.682 662.502 177.69 661.656 178.842 661.656C180.066 661.656 181.092 662.502 181.29 663.78H176.412ZM193.315 669.18C194.611 669.18 195.817 668.73 196.681 667.992L195.583 666.48C195.061 666.966 194.233 667.254 193.405 667.254C191.695 667.254 190.615 666.084 190.615 664.554C190.615 662.97 191.785 661.836 193.351 661.836C194.143 661.836 194.809 662.07 195.259 662.484L196.501 661.062C195.655 660.342 194.539 659.91 193.315 659.91C190.687 659.91 188.581 661.962 188.581 664.554C188.581 667.146 190.687 669.18 193.315 669.18ZM198.063 669H200.061V664.32C200.061 662.934 200.871 661.836 202.257 661.836C203.733 661.836 204.129 662.682 204.129 664.14V669H206.127V663.888C206.127 661.44 205.263 659.91 202.923 659.91C201.735 659.91 200.709 660.378 200.061 661.368V657.156H198.063V669ZM211.828 669.18C213.034 669.18 214.096 668.712 214.798 667.884V669H216.796V660.09H214.798V661.224C214.096 660.396 213.034 659.91 211.828 659.91C209.38 659.91 207.706 661.98 207.706 664.554C207.706 667.11 209.38 669.18 211.828 669.18ZM212.332 667.254C210.82 667.254 209.74 666.12 209.74 664.554C209.74 662.988 210.82 661.836 212.332 661.836C213.754 661.836 214.798 662.988 214.798 664.554C214.798 666.138 213.736 667.254 212.332 667.254ZM222.063 669.18C223.071 669.18 223.791 668.784 224.205 668.514L223.611 667.02C223.611 667.02 223.017 667.452 222.315 667.452C221.811 667.452 221.361 667.146 221.361 666.192V661.728H224.043V660.09H221.361V657.93L219.363 658.344V660.09H218.049V661.728H219.363V666.138C219.363 668.19 220.245 669.18 222.063 669.18Z" fill="#370050"/>
<path d="M80.0428 704H84.4708C88.2148 704 90.5728 701.354 90.5728 698.168C90.5728 694.982 88.2148 692.336 84.4708 692.336H80.0428V704ZM81.4828 702.74V693.596H84.3808C87.1888 693.596 89.0788 695.54 89.0788 698.168C89.0788 700.796 87.1888 702.74 84.3808 702.74H81.4828ZM96.8541 704.18C99.4281 704.18 101.462 702.164 101.462 699.626C101.462 697.07 99.4281 695.054 96.8541 695.054C94.2801 695.054 92.2461 697.07 92.2461 699.626C92.2461 702.164 94.2801 704.18 96.8541 704.18ZM96.8541 702.848C95.0361 702.848 93.6501 701.462 93.6501 699.626C93.6501 697.772 95.0361 696.386 96.8541 696.386C98.6721 696.386 100.058 697.772 100.058 699.626C100.058 701.462 98.6721 702.848 96.8541 702.848ZM107.931 706.646C108.957 706.646 110.199 706.502 111.153 704.432L115.329 695.234H113.925L111.315 701.066C111.171 701.39 110.901 702.11 110.901 702.11C110.901 702.11 110.703 701.534 110.505 701.12L107.751 695.234H106.329L110.271 703.424L110.073 703.82C109.479 705.08 108.885 705.35 107.931 705.35V706.646ZM120.655 704.18C123.229 704.18 125.263 702.164 125.263 699.626C125.263 697.07 123.229 695.054 120.655 695.054C118.081 695.054 116.047 697.07 116.047 699.626C116.047 702.164 118.081 704.18 120.655 704.18ZM120.655 702.848C118.837 702.848 117.451 701.462 117.451 699.626C117.451 697.772 118.837 696.386 120.655 696.386C122.473 696.386 123.859 697.772 123.859 699.626C123.859 701.462 122.473 702.848 120.655 702.848ZM130.242 704.18C131.394 704.18 132.654 703.586 133.194 702.452V704H134.508V695.234H133.14V700.202C133.14 701.552 132.222 702.848 130.638 702.848C129.216 702.848 128.424 702.164 128.424 700.526V695.234H127.056V700.706C127.056 703.046 128.082 704.18 130.242 704.18ZM140.735 704H142.103V699.05C142.103 697.664 143.111 696.386 144.713 696.386C146.297 696.386 146.927 697.25 146.927 698.87V704H148.313V698.69C148.313 696.332 147.287 695.054 145.127 695.054C143.831 695.054 142.715 695.666 142.103 696.728V692.156H140.735V704ZM154.236 704.18C155.64 704.18 156.882 703.622 157.53 702.47V704H158.898V695.234H157.53V696.764C156.882 695.63 155.64 695.054 154.236 695.054C151.806 695.054 150.096 697.052 150.096 699.626C150.096 702.164 151.806 704.18 154.236 704.18ZM154.542 702.848C152.796 702.848 151.5 701.48 151.5 699.626C151.5 697.754 152.796 696.386 154.542 696.386C156.216 696.386 157.53 697.79 157.53 699.626C157.53 701.462 156.216 702.848 154.542 702.848ZM164.076 704.054H165.336L169.188 695.234H167.802L165.336 700.832C164.976 701.642 164.706 702.578 164.706 702.578C164.706 702.578 164.436 701.642 164.076 700.832L161.592 695.234H160.206L164.076 704.054ZM174.514 704.18C175.72 704.18 176.89 703.766 177.826 703.028L177.232 702.02C176.512 702.614 175.522 702.956 174.532 702.956C172.912 702.956 171.562 701.858 171.346 700.112H178.492C178.492 700.094 178.528 699.824 178.528 699.572C178.528 697.07 176.674 695.054 174.334 695.054C171.832 695.054 169.924 697.088 169.924 699.626C169.924 702.398 172.03 704.18 174.514 704.18ZM171.346 699.068C171.544 697.43 172.768 696.278 174.262 696.278C175.792 696.278 177.034 697.448 177.178 699.068H171.346ZM188.179 704.18C189.583 704.18 190.825 703.622 191.473 702.47V704H192.841V695.234H191.473V696.764C190.825 695.63 189.583 695.054 188.179 695.054C185.749 695.054 184.039 697.052 184.039 699.626C184.039 702.164 185.749 704.18 188.179 704.18ZM188.485 702.848C186.739 702.848 185.443 701.48 185.443 699.626C185.443 697.754 186.739 696.386 188.485 696.386C190.159 696.386 191.473 697.79 191.473 699.626C191.473 701.462 190.159 702.848 188.485 702.848ZM195.139 704H196.507V699.068C196.507 697.61 197.605 696.386 199.171 696.386C200.755 696.386 201.349 697.25 201.349 698.87V704H202.717V698.69C202.717 696.386 201.745 695.054 199.549 695.054C198.253 695.054 197.119 695.666 196.507 696.728V695.234H195.139V704ZM205.384 706.646C206.41 706.646 207.652 706.502 208.606 704.432L212.782 695.234H211.378L208.768 701.066C208.624 701.39 208.354 702.11 208.354 702.11C208.354 702.11 208.156 701.534 207.958 701.12L205.204 695.234H203.782L207.724 703.424L207.526 703.82C206.932 705.08 206.338 705.35 205.384 705.35V706.646ZM225.065 706.538H226.433V695.234H225.119V696.746C224.471 695.612 223.193 695.054 221.771 695.054C219.341 695.054 217.631 697.052 217.631 699.608C217.631 702.164 219.341 704.18 221.771 704.18C223.175 704.18 224.417 703.604 225.065 702.47V706.538ZM222.077 702.848C220.331 702.848 219.035 701.48 219.035 699.608C219.035 697.754 220.331 696.386 222.077 696.386C223.751 696.386 225.065 697.772 225.065 699.608C225.065 701.444 223.751 702.848 222.077 702.848ZM231.773 704.18C232.925 704.18 234.185 703.586 234.725 702.452V704H236.039V695.234H234.671V700.202C234.671 701.552 233.753 702.848 232.169 702.848C230.747 702.848 229.955 702.164 229.955 700.526V695.234H228.587V700.706C228.587 703.046 229.613 704.18 231.773 704.18ZM242.576 704.18C243.782 704.18 244.952 703.766 245.888 703.028L245.294 702.02C244.574 702.614 243.584 702.956 242.594 702.956C240.974 702.956 239.624 701.858 239.408 700.112H246.554C246.554 700.094 246.59 699.824 246.59 699.572C246.59 697.07 244.736 695.054 242.396 695.054C239.894 695.054 237.986 697.088 237.986 699.626C237.986 702.398 240.092 704.18 242.576 704.18ZM239.408 699.068C239.606 697.43 240.83 696.278 242.324 696.278C243.854 696.278 245.096 697.448 245.24 699.068H239.408ZM251.494 704.18C253.204 704.18 255.094 703.352 255.094 701.498C255.094 699.77 253.456 699.176 251.872 698.816C250.846 698.6 249.874 698.402 249.874 697.538C249.874 696.854 250.72 696.35 251.62 696.35C252.538 696.35 253.312 696.602 254.05 697.106L254.59 695.99C253.69 695.378 252.808 695.054 251.602 695.054C250.126 695.054 248.47 695.972 248.47 697.556C248.47 699.23 249.946 699.68 251.566 700.094C252.628 700.364 253.69 700.616 253.69 701.534C253.69 702.326 252.7 702.884 251.494 702.884C250.216 702.884 249.28 702.362 248.632 701.732L248.074 702.848C248.578 703.37 249.712 704.18 251.494 704.18ZM259.913 704.18C260.867 704.18 261.587 703.766 261.929 703.532L261.479 702.47C261.479 702.47 260.849 702.956 260.039 702.956C259.337 702.956 258.815 702.614 258.815 701.408V696.368H261.803V695.234H258.815V693.092L257.447 693.344V695.234H256.133V696.368H257.447V701.372C257.447 703.424 258.365 704.18 259.913 704.18ZM263.553 704H264.921V695.234H263.553V704ZM264.237 693.668C264.741 693.668 265.155 693.272 265.155 692.768C265.155 692.264 264.741 691.85 264.237 691.85C263.733 691.85 263.337 692.264 263.337 692.768C263.337 693.272 263.733 693.668 264.237 693.668ZM271.475 704.18C274.049 704.18 276.083 702.164 276.083 699.626C276.083 697.07 274.049 695.054 271.475 695.054C268.901 695.054 266.867 697.07 266.867 699.626C266.867 702.164 268.901 704.18 271.475 704.18ZM271.475 702.848C269.657 702.848 268.271 701.462 268.271 699.626C268.271 697.772 269.657 696.386 271.475 696.386C273.293 696.386 274.679 697.772 274.679 699.626C274.679 701.462 273.293 702.848 271.475 702.848ZM278.02 704H279.388V699.068C279.388 697.61 280.486 696.386 282.052 696.386C283.636 696.386 284.23 697.25 284.23 698.87V704H285.598V698.69C285.598 696.386 284.626 695.054 282.43 695.054C281.134 695.054 280 695.666 279.388 696.728V695.234H278.02V704ZM290.548 692.156C288.838 692.156 287.56 693.038 287.002 694.496L288.136 695.036C288.568 694.046 289.414 693.488 290.494 693.488C291.844 693.488 292.906 694.55 292.906 695.828C292.906 697.34 291.7 698.492 289.72 698.51L289.882 700.94H291.052L291.196 699.41C292.996 699.14 294.31 697.682 294.31 695.846C294.31 693.794 292.798 692.156 290.548 692.156ZM290.476 702.272C289.954 702.272 289.522 702.704 289.522 703.226C289.522 703.766 289.936 704.18 290.476 704.18C290.998 704.18 291.43 703.766 291.43 703.226C291.43 702.704 290.998 702.272 290.476 702.272ZM82.0461 731.18C83.7741 731.18 85.2861 730.496 86.3661 729.416L85.4661 728.426C84.6201 729.326 83.3961 729.866 82.0461 729.866C79.4361 729.866 77.4561 727.742 77.4561 725.15C77.4561 722.576 79.4361 720.47 82.1361 720.47C83.2881 720.47 84.3321 720.866 85.2141 721.622L86.0601 720.65C85.0161 719.714 83.5941 719.156 82.0461 719.156C78.5721 719.156 75.9621 721.82 75.9621 725.15C75.9621 728.516 78.5721 731.18 82.0461 731.18ZM87.8336 731H89.2016V726.05C89.2016 724.664 90.2096 723.386 91.8116 723.386C93.3956 723.386 94.0256 724.25 94.0256 725.87V731H95.4116V725.69C95.4116 723.332 94.3856 722.054 92.2256 722.054C90.9296 722.054 89.8136 722.666 89.2016 723.728V719.156H87.8336V731ZM101.334 731.18C102.738 731.18 103.98 730.622 104.628 729.47V731H105.996V722.234H104.628V723.764C103.98 722.63 102.738 722.054 101.334 722.054C98.9043 722.054 97.1943 724.052 97.1943 726.626C97.1943 729.164 98.9043 731.18 101.334 731.18ZM101.64 729.848C99.8943 729.848 98.5983 728.48 98.5983 726.626C98.5983 724.754 99.8943 723.386 101.64 723.386C103.314 723.386 104.628 724.79 104.628 726.626C104.628 728.462 103.314 729.848 101.64 729.848ZM111.229 731.18C112.183 731.18 112.903 730.766 113.245 730.532L112.795 729.47C112.795 729.47 112.165 729.956 111.355 729.956C110.653 729.956 110.131 729.614 110.131 728.408V723.368H113.119V722.234H110.131V720.092L108.763 720.344V722.234H107.449V723.368H108.763V728.372C108.763 730.424 109.681 731.18 111.229 731.18ZM120.823 731.054H121.993L123.847 725.258C124.009 724.754 124.117 723.98 124.117 723.98C124.117 723.98 124.243 724.754 124.405 725.258L126.223 731.054H127.411L130.435 722.234H129.085L127.105 728.012C126.889 728.606 126.799 729.29 126.799 729.29C126.799 729.29 126.727 728.606 126.547 728.03L124.747 722.234H123.469L121.687 728.03C121.507 728.606 121.435 729.29 121.435 729.29C121.435 729.29 121.327 728.606 121.129 728.012L119.149 722.234H117.799L120.823 731.054ZM131.726 731H133.094V722.234H131.726V731ZM132.41 720.668C132.914 720.668 133.328 720.272 133.328 719.768C133.328 719.264 132.914 718.85 132.41 718.85C131.906 718.85 131.51 719.264 131.51 719.768C131.51 720.272 131.906 720.668 132.41 720.668ZM138.334 731.18C139.288 731.18 140.008 730.766 140.35 730.532L139.9 729.47C139.9 729.47 139.27 729.956 138.46 729.956C137.758 729.956 137.236 729.614 137.236 728.408V723.368H140.224V722.234H137.236V720.092L135.868 720.344V722.234H134.554V723.368H135.868V728.372C135.868 730.424 136.786 731.18 138.334 731.18ZM141.974 731H143.342V726.05C143.342 724.664 144.35 723.386 145.952 723.386C147.536 723.386 148.166 724.25 148.166 725.87V731H149.552V725.69C149.552 723.332 148.526 722.054 146.366 722.054C145.07 722.054 143.954 722.666 143.342 723.728V719.156H141.974V731ZM159.863 731.18C162.437 731.18 164.471 729.164 164.471 726.626C164.471 724.07 162.437 722.054 159.863 722.054C157.289 722.054 155.255 724.07 155.255 726.626C155.255 729.164 157.289 731.18 159.863 731.18ZM159.863 729.848C158.045 729.848 156.659 728.462 156.659 726.626C156.659 724.772 158.045 723.386 159.863 723.386C161.681 723.386 163.067 724.772 163.067 726.626C163.067 728.462 161.681 729.848 159.863 729.848ZM169.45 731.18C170.602 731.18 171.862 730.586 172.402 729.452V731H173.716V722.234H172.348V727.202C172.348 728.552 171.43 729.848 169.846 729.848C168.424 729.848 167.632 729.164 167.632 727.526V722.234H166.264V727.706C166.264 730.046 167.29 731.18 169.45 731.18ZM176.023 731H177.391V726.842C177.391 724.7 178.723 723.548 180.775 723.548V722.054C179.029 722.054 177.895 722.936 177.391 724.088V722.234H176.023V731ZM189.223 731.18C190.933 731.18 192.823 730.352 192.823 728.498C192.823 726.77 191.185 726.176 189.601 725.816C188.575 725.6 187.603 725.402 187.603 724.538C187.603 723.854 188.449 723.35 189.349 723.35C190.267 723.35 191.041 723.602 191.779 724.106L192.319 722.99C191.419 722.378 190.537 722.054 189.331 722.054C187.855 722.054 186.199 722.972 186.199 724.556C186.199 726.23 187.675 726.68 189.295 727.094C190.357 727.364 191.419 727.616 191.419 728.534C191.419 729.326 190.429 729.884 189.223 729.884C187.945 729.884 187.009 729.362 186.361 728.732L185.803 729.848C186.307 730.37 187.441 731.18 189.223 731.18ZM197.751 731.18C198.903 731.18 200.163 730.586 200.703 729.452V731H202.017V722.234H200.649V727.202C200.649 728.552 199.731 729.848 198.147 729.848C196.725 729.848 195.933 729.164 195.933 727.526V722.234H194.565V727.706C194.565 730.046 195.591 731.18 197.751 731.18ZM204.324 733.538H205.692V729.47C206.34 730.604 207.6 731.18 208.986 731.18C211.416 731.18 213.126 729.164 213.126 726.608C213.126 724.052 211.416 722.054 208.986 722.054C207.564 722.054 206.286 722.612 205.638 723.746V722.234H204.324V733.538ZM208.68 729.848C207.006 729.848 205.692 728.444 205.692 726.608C205.692 724.772 207.006 723.386 208.68 723.386C210.426 723.386 211.722 724.754 211.722 726.608C211.722 728.48 210.426 729.848 208.68 729.848ZM215.064 733.538H216.432V729.47C217.08 730.604 218.34 731.18 219.726 731.18C222.156 731.18 223.866 729.164 223.866 726.608C223.866 724.052 222.156 722.054 219.726 722.054C218.304 722.054 217.026 722.612 216.378 723.746V722.234H215.064V733.538ZM219.42 729.848C217.746 729.848 216.432 728.444 216.432 726.608C216.432 724.772 217.746 723.386 219.42 723.386C221.166 723.386 222.462 724.754 222.462 726.608C222.462 728.48 221.166 729.848 219.42 729.848ZM230.052 731.18C232.626 731.18 234.66 729.164 234.66 726.626C234.66 724.07 232.626 722.054 230.052 722.054C227.478 722.054 225.444 724.07 225.444 726.626C225.444 729.164 227.478 731.18 230.052 731.18ZM230.052 729.848C228.234 729.848 226.848 728.462 226.848 726.626C226.848 724.772 228.234 723.386 230.052 723.386C231.87 723.386 233.256 724.772 233.256 726.626C233.256 728.462 231.87 729.848 230.052 729.848ZM236.597 731H237.965V726.842C237.965 724.7 239.297 723.548 241.349 723.548V722.054C239.603 722.054 238.469 722.936 237.965 724.088V722.234H236.597V731ZM246.211 731.18C247.165 731.18 247.885 730.766 248.227 730.532L247.777 729.47C247.777 729.47 247.147 729.956 246.337 729.956C245.635 729.956 245.113 729.614 245.113 728.408V723.368H248.101V722.234H245.113V720.092L243.745 720.344V722.234H242.431V723.368H243.745V728.372C243.745 730.424 244.663 731.18 246.211 731.18ZM256.705 731.18C257.659 731.18 258.379 730.766 258.721 730.532L258.271 729.47C258.271 729.47 257.641 729.956 256.831 729.956C256.129 729.956 255.607 729.614 255.607 728.408V723.368H258.595V722.234H255.607V720.092L254.239 720.344V722.234H252.925V723.368H254.239V728.372C254.239 730.424 255.157 731.18 256.705 731.18ZM264.47 731.18C265.676 731.18 266.846 730.766 267.782 730.028L267.188 729.02C266.468 729.614 265.478 729.956 264.488 729.956C262.868 729.956 261.518 728.858 261.302 727.112H268.448C268.448 727.094 268.484 726.824 268.484 726.572C268.484 724.07 266.63 722.054 264.29 722.054C261.788 722.054 259.88 724.088 259.88 726.626C259.88 729.398 261.986 731.18 264.47 731.18ZM261.302 726.068C261.5 724.43 262.724 723.278 264.218 723.278C265.748 723.278 266.99 724.448 267.134 726.068H261.302ZM274.215 731.18C275.619 731.18 276.861 730.622 277.509 729.47V731H278.877V722.234H277.509V723.764C276.861 722.63 275.619 722.054 274.215 722.054C271.785 722.054 270.075 724.052 270.075 726.626C270.075 729.164 271.785 731.18 274.215 731.18ZM274.521 729.848C272.775 729.848 271.479 728.48 271.479 726.626C271.479 724.754 272.775 723.386 274.521 723.386C276.195 723.386 277.509 724.79 277.509 726.626C277.509 728.462 276.195 729.848 274.521 729.848ZM281.175 731H282.543V725.96C282.543 724.682 283.461 723.386 284.991 723.386C286.575 723.386 287.097 724.376 287.097 725.87V731H288.483V725.888C288.483 724.574 289.419 723.386 290.895 723.386C292.497 723.386 293.019 724.376 293.019 725.87V731H294.405V725.69C294.405 723.278 293.289 722.054 291.183 722.054C290.157 722.054 288.789 722.63 288.159 723.908C287.745 722.666 286.755 722.054 285.351 722.054C284.127 722.054 283.029 722.792 282.543 723.746V722.234H281.175V731ZM297.205 731.18C297.727 731.18 298.159 730.748 298.159 730.226C298.159 729.704 297.727 729.272 297.205 729.272C296.683 729.272 296.269 729.704 296.269 730.226C296.269 730.748 296.665 731.18 297.205 731.18Z" fill="#524658"/>
<path d="M151.057 766.18C153.361 766.18 155.773 765.082 155.773 762.634C155.773 760.366 153.631 759.538 151.417 759.016C150.013 758.674 148.969 758.368 148.969 757.432C148.969 756.37 150.301 756.046 151.075 756.046C152.281 756.046 153.361 756.352 154.405 757.018L155.215 755.416C154.045 754.624 152.749 754.156 151.075 754.156C148.915 754.156 146.845 755.272 146.845 757.45C146.845 759.772 149.059 760.456 151.201 760.96C152.389 761.248 153.595 761.572 153.595 762.634C153.595 763.696 152.335 764.29 151.075 764.29C149.329 764.29 148.159 763.696 147.205 762.922L146.395 764.506C147.169 765.226 148.519 766.18 151.057 766.18ZM160.873 766.18C161.881 766.18 162.601 765.784 163.015 765.514L162.421 764.02C162.421 764.02 161.827 764.452 161.125 764.452C160.621 764.452 160.171 764.146 160.171 763.192V758.728H162.853V757.09H160.171V754.93L158.173 755.344V757.09H156.859V758.728H158.173V763.138C158.173 765.19 159.055 766.18 160.873 766.18ZM168.058 766.18C169.264 766.18 170.326 765.712 171.028 764.884V766H173.026V757.09H171.028V758.224C170.326 757.396 169.264 756.91 168.058 756.91C165.61 756.91 163.936 758.98 163.936 761.554C163.936 764.11 165.61 766.18 168.058 766.18ZM168.562 764.254C167.05 764.254 165.97 763.12 165.97 761.554C165.97 759.988 167.05 758.836 168.562 758.836C169.984 758.836 171.028 759.988 171.028 761.554C171.028 763.138 169.966 764.254 168.562 764.254ZM175.035 766H177.033V762.364C177.033 760.024 178.293 759.088 180.255 759.088V756.91C178.347 756.91 177.375 757.954 177.033 758.854V757.09H175.035V766ZM185.289 766.18C186.297 766.18 187.017 765.784 187.431 765.514L186.837 764.02C186.837 764.02 186.243 764.452 185.541 764.452C185.037 764.452 184.587 764.146 184.587 763.192V758.728H187.269V757.09H184.587V754.93L182.589 755.344V757.09H181.275V758.728H182.589V763.138C182.589 765.19 183.471 766.18 185.289 766.18ZM197.147 766.18C198.443 766.18 199.649 765.73 200.513 764.992L199.415 763.48C198.893 763.966 198.065 764.254 197.237 764.254C195.527 764.254 194.447 763.084 194.447 761.554C194.447 759.97 195.617 758.836 197.183 758.836C197.975 758.836 198.641 759.07 199.091 759.484L200.333 758.062C199.487 757.342 198.371 756.91 197.147 756.91C194.519 756.91 192.413 758.962 192.413 761.554C192.413 764.146 194.519 766.18 197.147 766.18ZM201.895 766H203.893V761.32C203.893 759.934 204.703 758.836 206.089 758.836C207.565 758.836 207.961 759.682 207.961 761.14V766H209.959V760.888C209.959 758.44 209.095 756.91 206.755 756.91C205.567 756.91 204.541 757.378 203.893 758.368V754.156H201.895V766ZM215.66 766.18C216.866 766.18 217.928 765.712 218.63 764.884V766H220.628V757.09H218.63V758.224C217.928 757.396 216.866 756.91 215.66 756.91C213.212 756.91 211.538 758.98 211.538 761.554C211.538 764.11 213.212 766.18 215.66 766.18ZM216.164 764.254C214.652 764.254 213.572 763.12 213.572 761.554C213.572 759.988 214.652 758.836 216.164 758.836C217.586 758.836 218.63 759.988 218.63 761.554C218.63 763.138 217.568 764.254 216.164 764.254ZM225.895 766.18C226.903 766.18 227.623 765.784 228.037 765.514L227.443 764.02C227.443 764.02 226.849 764.452 226.147 764.452C225.643 764.452 225.193 764.146 225.193 763.192V758.728H227.875V757.09H225.193V754.93L223.195 755.344V757.09H221.881V758.728H223.195V763.138C223.195 765.19 224.077 766.18 225.895 766.18Z" fill="#EC6225"/>
<path d="M145.621 767.8H228.379V768.7H145.621V767.8Z" fill="#EC6225"/>
<defs>
<linearGradient id="paint0_linear_2_1961" x1="155" y1="108" x2="155" y2="172" gradientUnits="userSpaceOnUse">
<stop stop-color="#C81162"/>
<stop offset="0.0833333" stop-color="#CD205D"/>
<stop offset="0.15625" stop-color="#D22F58"/>
<stop offset="0.260417" stop-color="#D63D53"/>
<stop offset="0.359375" stop-color="#DB4C4D"/>
<stop offset="0.463542" stop-color="#DF5A48"/>
<stop offset="0.572917" stop-color="#E46843"/>
<stop offset="0.682292" stop-color="#E8763E"/>
<stop offset="0.765625" stop-color="#EC8439"/>
<stop offset="0.875" stop-color="#F19134"/>
<stop offset="0.989583" stop-color="#F49E2F"/>
</linearGradient>
<linearGradient id="paint1_linear_2_1961" x1="198.486" y1="128.493" x2="198.486" y2="151.501" gradientUnits="userSpaceOnUse">
<stop stop-color="#C81162"/>
<stop offset="0.0833333" stop-color="#CD205D"/>
<stop offset="0.15625" stop-color="#D22F58"/>
<stop offset="0.260417" stop-color="#D63D53"/>
<stop offset="0.359375" stop-color="#DB4C4D"/>
<stop offset="0.463542" stop-color="#DF5A48"/>
<stop offset="0.572917" stop-color="#E46843"/>
<stop offset="0.682292" stop-color="#E8763E"/>
<stop offset="0.765625" stop-color="#EC8439"/>
<stop offset="0.875" stop-color="#F19134"/>
<stop offset="0.989583" stop-color="#F49E2F"/>
</linearGradient>
<linearGradient id="paint2_linear_2_1961" x1="155" y1="338" x2="155" y2="402" gradientUnits="userSpaceOnUse">
<stop stop-color="#C81162"/>
<stop offset="0.0833333" stop-color="#CD205D"/>
<stop offset="0.15625" stop-color="#D22F58"/>
<stop offset="0.260417" stop-color="#D63D53"/>
<stop offset="0.359375" stop-color="#DB4C4D"/>
<stop offset="0.463542" stop-color="#DF5A48"/>
<stop offset="0.572917" stop-color="#E46843"/>
<stop offset="0.682292" stop-color="#E8763E"/>
<stop offset="0.765625" stop-color="#EC8439"/>
<stop offset="0.875" stop-color="#F19134"/>
<stop offset="0.989583" stop-color="#F49E2F"/>
</linearGradient>
<linearGradient id="paint3_linear_2_1961" x1="177.5" y1="370" x2="197.5" y2="370" gradientUnits="userSpaceOnUse">
<stop stop-color="#C81162"/>
<stop offset="0.0833333" stop-color="#CD205D"/>
<stop offset="0.15625" stop-color="#D22F58"/>
<stop offset="0.260417" stop-color="#D63D53"/>
<stop offset="0.359375" stop-color="#DB4C4D"/>
<stop offset="0.463542" stop-color="#DF5A48"/>
<stop offset="0.572917" stop-color="#E46843"/>
<stop offset="0.682292" stop-color="#E8763E"/>
<stop offset="0.765625" stop-color="#EC8439"/>
<stop offset="0.875" stop-color="#F19134"/>
<stop offset="0.989583" stop-color="#F49E2F"/>
</linearGradient>
<linearGradient id="paint4_linear_2_1961" x1="175" y1="378.539" x2="180" y2="378.539" gradientUnits="userSpaceOnUse">
<stop stop-color="#C81162"/>
<stop offset="0.0833333" stop-color="#CD205D"/>
<stop offset="0.15625" stop-color="#D22F58"/>
<stop offset="0.260417" stop-color="#D63D53"/>
<stop offset="0.359375" stop-color="#DB4C4D"/>
<stop offset="0.463542" stop-color="#DF5A48"/>
<stop offset="0.572917" stop-color="#E46843"/>
<stop offset="0.682292" stop-color="#E8763E"/>
<stop offset="0.765625" stop-color="#EC8439"/>
<stop offset="0.875" stop-color="#F19134"/>
<stop offset="0.989583" stop-color="#F49E2F"/>
</linearGradient>
<linearGradient id="paint5_linear_2_1961" x1="195" y1="378.539" x2="200" y2="378.539" gradientUnits="userSpaceOnUse">
<stop stop-color="#C81162"/>
<stop offset="0.0833333" stop-color="#CD205D"/>
<stop offset="0.15625" stop-color="#D22F58"/>
<stop offset="0.260417" stop-color="#D63D53"/>
<stop offset="0.359375" stop-color="#DB4C4D"/>
<stop offset="0.463542" stop-color="#DF5A48"/>
<stop offset="0.572917" stop-color="#E46843"/>
<stop offset="0.682292" stop-color="#E8763E"/>
<stop offset="0.765625" stop-color="#EC8439"/>
<stop offset="0.875" stop-color="#F19134"/>
<stop offset="0.989583" stop-color="#F49E2F"/>
</linearGradient>
<linearGradient id="paint6_linear_2_1961" x1="190.625" y1="381.875" x2="197.5" y2="381.875" gradientUnits="userSpaceOnUse">
<stop stop-color="#C81162"/>
<stop offset="0.0833333" stop-color="#CD205D"/>
<stop offset="0.15625" stop-color="#D22F58"/>
<stop offset="0.260417" stop-color="#D63D53"/>
<stop offset="0.359375" stop-color="#DB4C4D"/>
<stop offset="0.463542" stop-color="#DF5A48"/>
<stop offset="0.572917" stop-color="#E46843"/>
<stop offset="0.682292" stop-color="#E8763E"/>
<stop offset="0.765625" stop-color="#EC8439"/>
<stop offset="0.875" stop-color="#F19134"/>
<stop offset="0.989583" stop-color="#F49E2F"/>
</linearGradient>
<linearGradient id="paint7_linear_2_1961" x1="183.75" y1="383.749" x2="191.25" y2="383.749" gradientUnits="userSpaceOnUse">
<stop stop-color="#C81162"/>
<stop offset="0.0833333" stop-color="#CD205D"/>
<stop offset="0.15625" stop-color="#D22F58"/>
<stop offset="0.260417" stop-color="#D63D53"/>
<stop offset="0.359375" stop-color="#DB4C4D"/>
<stop offset="0.463542" stop-color="#DF5A48"/>
<stop offset="0.572917" stop-color="#E46843"/>
<stop offset="0.682292" stop-color="#E8763E"/>
<stop offset="0.765625" stop-color="#EC8439"/>
<stop offset="0.875" stop-color="#F19134"/>
<stop offset="0.989583" stop-color="#F49E2F"/>
</linearGradient>
<linearGradient id="paint8_linear_2_1961" x1="181.2" y1="614" x2="201" y2="614" gradientUnits="userSpaceOnUse">
<stop stop-color="#C81162"/>
<stop offset="0.0833333" stop-color="#CD205D"/>
<stop offset="0.15625" stop-color="#D22F58"/>
<stop offset="0.260417" stop-color="#D63D53"/>
<stop offset="0.359375" stop-color="#DB4C4D"/>
<stop offset="0.463542" stop-color="#DF5A48"/>
<stop offset="0.572917" stop-color="#E46843"/>
<stop offset="0.682292" stop-color="#E8763E"/>
<stop offset="0.765625" stop-color="#EC8439"/>
<stop offset="0.875" stop-color="#F19134"/>
<stop offset="0.989583" stop-color="#F49E2F"/>
</linearGradient>
<linearGradient id="paint9_linear_2_1961" x1="174" y1="605.9" x2="192.44" y2="605.9" gradientUnits="userSpaceOnUse">
<stop stop-color="#C81162"/>
<stop offset="0.0833333" stop-color="#CD205D"/>
<stop offset="0.15625" stop-color="#D22F58"/>
<stop offset="0.260417" stop-color="#D63D53"/>
<stop offset="0.359375" stop-color="#DB4C4D"/>
<stop offset="0.463542" stop-color="#DF5A48"/>
<stop offset="0.572917" stop-color="#E46843"/>
<stop offset="0.682292" stop-color="#E8763E"/>
<stop offset="0.765625" stop-color="#EC8439"/>
<stop offset="0.875" stop-color="#F19134"/>
<stop offset="0.989583" stop-color="#F49E2F"/>
</linearGradient>
<linearGradient id="paint10_linear_2_1961" x1="155" y1="568" x2="155" y2="632" gradientUnits="userSpaceOnUse">
<stop stop-color="#C81162"/>
<stop offset="0.0833333" stop-color="#CD205D"/>
<stop offset="0.15625" stop-color="#D22F58"/>
<stop offset="0.260417" stop-color="#D63D53"/>
<stop offset="0.359375" stop-color="#DB4C4D"/>
<stop offset="0.463542" stop-color="#DF5A48"/>
<stop offset="0.572917" stop-color="#E46843"/>
<stop offset="0.682292" stop-color="#E8763E"/>
<stop offset="0.765625" stop-color="#EC8439"/>
<stop offset="0.875" stop-color="#F19134"/>
<stop offset="0.989583" stop-color="#F49E2F"/>
</linearGradient>
</defs>
</svg>
