<svg width="504" height="133" viewBox="0 0 504 133" fill="none" xmlns="http://www.w3.org/2000/svg">
<g clip-path="url(#clip0_3_31)">
<path d="M491.292 119.649C491.355 118.329 491.922 117.084 492.878 116.172C493.833 115.26 495.103 114.752 496.423 114.752C497.743 114.752 499.013 115.26 499.968 116.172C500.923 117.084 501.491 118.329 501.553 119.649H491.292ZM496.861 128.637C498.975 128.638 501.028 127.929 502.692 126.625L501.643 124.871C500.291 125.938 498.62 126.518 496.898 126.517C495.505 126.541 494.154 126.038 493.116 125.109C492.077 124.18 491.426 122.893 491.294 121.506H503.851C503.868 121.19 503.868 120.874 503.851 120.559C503.891 119.552 503.731 118.548 503.382 117.604C503.033 116.659 502.5 115.793 501.815 115.055C501.13 114.317 500.306 113.722 499.39 113.304C498.474 112.887 497.485 112.654 496.479 112.62C494.406 112.737 492.459 113.653 491.048 115.177C489.637 116.7 488.871 118.712 488.912 120.789C488.953 122.866 489.797 124.846 491.268 126.313C492.738 127.78 494.719 128.619 496.795 128.653L496.861 128.637ZM472.282 128.337H474.699V119.575C474.687 118.956 474.8 118.341 475.031 117.766C475.261 117.191 475.604 116.668 476.04 116.229C476.477 115.789 476.996 115.442 477.569 115.207C478.142 114.972 478.756 114.855 479.375 114.862C482.158 114.862 483.21 116.386 483.21 119.243V128.25H485.608V118.979C485.608 114.931 483.858 112.602 480.039 112.602C478.982 112.584 477.939 112.848 477.016 113.365C476.094 113.882 475.324 114.634 474.786 115.545V112.916H472.369L472.282 128.337ZM460.777 126.322C459.648 126.336 458.541 126.013 457.596 125.395C456.65 124.777 455.91 123.891 455.47 122.851C455.029 121.811 454.907 120.663 455.12 119.553C455.333 118.444 455.871 117.423 456.666 116.62C457.461 115.818 458.476 115.27 459.583 115.046C460.689 114.823 461.838 114.933 462.881 115.365C463.925 115.796 464.817 116.529 465.443 117.469C466.069 118.409 466.402 119.514 466.399 120.644C466.418 121.39 466.287 122.133 466.012 122.827C465.737 123.521 465.324 124.152 464.799 124.683C464.274 125.213 463.647 125.632 462.955 125.914C462.264 126.195 461.523 126.334 460.777 126.322ZM460.777 128.653C462.622 128.624 464.4 127.956 465.808 126.764C467.217 125.571 468.169 123.927 468.503 122.111C468.838 120.296 468.534 118.42 467.643 116.803C466.752 115.187 465.329 113.929 463.616 113.243C461.902 112.557 460.005 112.486 458.245 113.042C456.486 113.598 454.973 114.746 453.964 116.292C452.955 117.837 452.512 119.685 452.71 121.52C452.907 123.356 453.735 125.066 455.05 126.361C455.806 127.103 456.702 127.687 457.685 128.08C458.668 128.474 459.719 128.669 460.777 128.653ZM438.416 133.009C439.659 133.088 440.892 132.746 441.917 132.039C442.943 131.333 443.702 130.302 444.072 129.112L451.403 112.939H448.933L444.351 123.191C444.106 123.752 443.634 124.942 443.634 124.942C443.634 124.942 443.284 123.926 442.933 123.191L438.1 112.851H435.596L442.599 127.255L442.267 127.943C441.215 130.169 440.166 130.641 438.503 130.641L438.416 133.009ZM426.157 128.349H428.576V121.042C428.51 120.252 428.619 119.456 428.896 118.713C429.173 117.969 429.61 117.296 430.178 116.742C430.745 116.188 431.428 115.766 432.177 115.507C432.926 115.247 433.724 115.157 434.512 115.242V112.631C433.284 112.545 432.059 112.834 430.999 113.46C429.939 114.086 429.094 115.019 428.576 116.137V112.868H426.23L426.157 128.349ZM410.121 119.587C410.183 118.267 410.751 117.022 411.706 116.11C412.661 115.198 413.931 114.69 415.251 114.69C416.571 114.69 417.841 115.198 418.796 116.11C419.752 117.022 420.319 118.267 420.382 119.587H410.121ZM415.69 128.576C417.804 128.576 419.856 127.867 421.52 126.563L420.471 124.809C419.121 125.879 417.449 126.459 415.727 126.455C414.334 126.479 412.983 125.977 411.944 125.048C410.905 124.119 410.255 122.832 410.123 121.444H422.695V120.497C422.735 119.491 422.576 118.486 422.227 117.542C421.877 116.597 421.344 115.731 420.659 114.993C419.974 114.255 419.15 113.661 418.234 113.243C417.319 112.825 416.329 112.592 415.323 112.558C413.251 112.675 411.304 113.591 409.893 115.115C408.481 116.638 407.716 118.65 407.757 120.727C407.798 122.804 408.642 124.785 410.112 126.251C411.582 127.718 413.564 128.557 415.64 128.592L415.69 128.576ZM397.516 128.433H399.711L406.487 112.925H404.054L399.702 122.755C399.275 123.761 398.906 124.79 398.597 125.838C398.289 124.79 397.92 123.761 397.493 122.755L393.115 112.925H390.682L397.516 128.433ZM376.783 119.672C376.846 118.352 377.414 117.107 378.369 116.195C379.324 115.283 380.594 114.775 381.914 114.775C383.234 114.775 384.504 115.283 385.459 116.195C386.414 117.107 386.982 118.352 387.044 119.672H376.783ZM382.353 128.66C384.467 128.66 386.519 127.95 388.183 126.645L387.131 124.894C385.78 125.962 384.109 126.542 382.387 126.542C380.994 126.566 379.643 126.064 378.604 125.135C377.566 124.206 376.915 122.919 376.783 121.531H389.34C389.356 121.215 389.356 120.899 389.34 120.584C389.38 119.578 389.22 118.573 388.871 117.629C388.521 116.684 387.989 115.818 387.304 115.08C386.619 114.343 385.794 113.748 384.879 113.33C383.963 112.912 382.974 112.679 381.968 112.645C379.895 112.762 377.948 113.678 376.537 115.202C375.126 116.725 374.36 118.737 374.401 120.814C374.442 122.891 375.286 124.872 376.757 126.338C378.227 127.805 380.208 128.644 382.284 128.679L382.353 128.66ZM356.823 128.362H359.221V121.056C359.157 120.264 359.269 119.468 359.548 118.724C359.827 117.981 360.267 117.308 360.836 116.754C361.405 116.2 362.089 115.778 362.839 115.519C363.59 115.26 364.388 115.171 365.178 115.256V112.638C363.948 112.555 362.721 112.845 361.659 113.471C360.596 114.096 359.747 115.027 359.221 116.143V112.884H356.823V128.362ZM345.299 126.347C344.17 126.362 343.063 126.041 342.117 125.424C341.171 124.807 340.43 123.922 339.988 122.883C339.545 121.843 339.422 120.695 339.634 119.586C339.846 118.476 340.383 117.454 341.176 116.65C341.97 115.847 342.985 115.298 344.091 115.073C345.198 114.848 346.346 114.957 347.39 115.388C348.434 115.818 349.327 116.549 349.954 117.488C350.582 118.427 350.916 119.532 350.915 120.662C350.934 121.41 350.801 122.154 350.525 122.849C350.249 123.544 349.835 124.176 349.309 124.707C348.782 125.238 348.153 125.656 347.46 125.937C346.767 126.218 346.024 126.355 345.277 126.34L345.299 126.347ZM345.277 128.672C347.121 128.646 348.9 127.982 350.311 126.793C351.721 125.603 352.677 123.962 353.015 122.147C353.354 120.332 353.054 118.456 352.167 116.838C351.28 115.219 349.86 113.958 348.149 113.268C346.437 112.579 344.54 112.503 342.78 113.054C341.019 113.605 339.504 114.75 338.491 116.292C337.478 117.835 337.029 119.681 337.222 121.517C337.415 123.353 338.238 125.065 339.549 126.363C340.304 127.108 341.199 127.695 342.182 128.091C343.165 128.488 344.217 128.685 345.277 128.672ZM328.832 128.355H331.231V114.931H336.205V112.95H331.302V112.022C331.302 109.621 332.354 109.025 333.561 109.025C334.414 109.054 335.243 109.315 335.959 109.78L336.747 107.946C335.627 107.285 334.353 106.929 333.052 106.912C330.933 106.912 328.901 107.946 328.901 111.783V112.957H326.402V114.938H328.922L328.832 128.355ZM315.208 128.672C316.464 128.65 317.685 128.25 318.711 127.526L317.923 125.669C317.18 126.199 316.297 126.498 315.385 126.528C314.159 126.528 313.231 125.914 313.231 123.796V114.931H318.484V112.95H313.231V109.184L310.833 109.621V112.95H308.542V114.931H310.853V123.693C310.853 127.303 312.457 128.617 315.206 128.617L315.208 128.672ZM293.999 119.628C294.055 118.306 294.619 117.057 295.574 116.141C296.528 115.226 297.799 114.714 299.122 114.714C300.444 114.714 301.715 115.226 302.67 116.141C303.624 117.057 304.188 118.306 304.244 119.628H293.999ZM299.568 128.617C301.678 128.619 303.727 127.909 305.383 126.602L304.349 124.85C302.998 125.918 301.327 126.499 299.605 126.499C298.212 126.523 296.861 126.02 295.822 125.091C294.784 124.162 294.133 122.875 294.001 121.487H306.558C306.574 121.172 306.574 120.856 306.558 120.54C306.598 119.534 306.438 118.53 306.089 117.585C305.739 116.641 305.207 115.775 304.522 115.037C303.837 114.299 303.012 113.704 302.097 113.286C301.181 112.868 300.192 112.636 299.186 112.602C297.113 112.718 295.166 113.635 293.755 115.158C292.344 116.682 291.578 118.694 291.619 120.771C291.66 122.848 292.504 124.828 293.975 126.295C295.445 127.762 297.426 128.6 299.502 128.635L299.568 128.617ZM274.989 128.319H277.406V119.557C277.394 118.938 277.507 118.322 277.737 117.748C277.968 117.173 278.311 116.65 278.747 116.21C279.183 115.771 279.703 115.423 280.276 115.188C280.849 114.954 281.463 114.836 282.082 114.844C284.865 114.844 285.917 116.368 285.917 119.225V128.227H288.315V118.975C288.315 114.926 286.565 112.597 282.746 112.597C281.674 112.564 280.613 112.82 279.674 113.338C278.734 113.856 277.951 114.616 277.406 115.541V112.911H274.989V128.319ZM263.853 128.319H266.27V121.013C266.204 120.222 266.313 119.427 266.59 118.683C266.866 117.94 267.304 117.267 267.871 116.712C268.439 116.158 269.121 115.736 269.871 115.477C270.62 115.218 271.417 115.127 272.206 115.213V112.602C270.978 112.515 269.753 112.805 268.693 113.43C267.633 114.056 266.788 114.99 266.27 116.107V112.847H263.853V128.319ZM247.817 119.557C247.879 118.237 248.447 116.992 249.402 116.08C250.357 115.169 251.627 114.66 252.947 114.66C254.267 114.66 255.537 115.169 256.492 116.08C257.448 116.992 258.015 118.237 258.078 119.557H247.817ZM253.386 128.546C255.5 128.545 257.553 127.836 259.216 126.531L258.165 124.779C256.815 125.849 255.142 126.429 253.42 126.425C252.027 126.449 250.677 125.946 249.638 125.017C248.6 124.088 247.949 122.802 247.817 121.414H260.389V120.467C260.429 119.461 260.27 118.456 259.92 117.512C259.571 116.567 259.038 115.701 258.353 114.963C257.668 114.226 256.844 113.631 255.928 113.213C255.012 112.795 254.023 112.562 253.017 112.528C250.944 112.645 248.998 113.561 247.586 115.085C246.175 116.609 245.409 118.621 245.45 120.698C245.491 122.775 246.336 124.755 247.806 126.222C249.276 127.688 251.257 128.527 253.333 128.562L253.386 128.546ZM239.709 128.562C240.966 128.543 242.187 128.143 243.212 127.416L242.424 125.559C241.682 126.092 240.798 126.391 239.886 126.418C238.66 126.418 237.748 125.804 237.748 123.686V114.818H243.001V112.838H237.748V109.071L235.331 109.509V112.838H233.02V114.818H235.331V123.58C235.331 127.191 236.935 128.504 239.684 128.504L239.709 128.562ZM217.409 128.188H219.808V119.426C219.796 118.805 219.91 118.189 220.141 117.612C220.373 117.036 220.718 116.513 221.156 116.073C221.594 115.633 222.116 115.286 222.691 115.052C223.266 114.819 223.882 114.703 224.502 114.713C227.286 114.713 228.319 116.237 228.319 119.094V128.101H230.736V118.972C230.736 114.924 228.985 112.595 225.166 112.595C224.092 112.564 223.03 112.821 222.088 113.338C221.146 113.856 220.359 114.615 219.808 115.538V112.909H217.409V128.188ZM212.156 110.016C212.366 110.019 212.574 109.981 212.768 109.904C212.962 109.826 213.139 109.71 213.289 109.564C213.438 109.417 213.557 109.242 213.637 109.048C213.718 108.855 213.76 108.648 213.76 108.438C213.76 108.013 213.591 107.605 213.29 107.304C212.99 107.003 212.582 106.834 212.156 106.834C211.736 106.841 211.335 107.013 211.04 107.313C210.745 107.614 210.58 108.018 210.58 108.438C210.578 108.646 210.617 108.852 210.695 109.045C210.774 109.237 210.89 109.412 211.036 109.559C211.183 109.706 211.358 109.822 211.55 109.901C211.743 109.979 211.949 110.018 212.156 110.016ZM210.965 128.188H213.364V112.785H210.94L210.965 128.188ZM192.929 128.188H195.327V120.891C195.263 120.099 195.375 119.303 195.654 118.559C195.933 117.816 196.373 117.143 196.942 116.589C197.511 116.035 198.195 115.613 198.945 115.354C199.696 115.095 200.495 115.006 201.284 115.091V112.48C200.054 112.397 198.827 112.687 197.765 113.312C196.702 113.938 195.853 114.869 195.327 115.985V112.725H192.929V128.188ZM176.892 119.426C176.948 118.104 177.512 116.855 178.467 115.939C179.422 115.024 180.693 114.513 182.015 114.513C183.337 114.513 184.608 115.024 185.563 115.939C186.517 116.855 187.082 118.104 187.137 119.426H176.892ZM182.462 128.415C184.57 128.415 186.617 127.705 188.274 126.4L187.243 124.646C185.89 125.712 184.22 126.292 182.498 126.295C181.105 126.319 179.755 125.816 178.716 124.887C177.677 123.958 177.027 122.671 176.895 121.283H189.451C189.468 120.968 189.468 120.652 189.451 120.336C189.491 119.33 189.332 118.326 188.982 117.381C188.633 116.437 188.1 115.571 187.415 114.833C186.73 114.095 185.906 113.5 184.99 113.082C184.074 112.664 183.085 112.432 182.079 112.398C180.006 112.514 178.06 113.431 176.648 114.954C175.237 116.478 174.471 118.49 174.512 120.567C174.553 122.644 175.398 124.624 176.868 126.091C178.338 127.558 180.319 128.396 182.395 128.431L182.462 128.415ZM168.755 128.431C170.01 128.405 171.23 128.006 172.258 127.285L171.644 125.621C170.901 126.151 170.018 126.45 169.106 126.48C167.88 126.48 166.952 125.866 166.952 123.748V114.88H172.205V112.9H166.952V109.133L164.554 109.571V112.9H162.242V114.88H164.641V123.642C164.641 127.253 166.244 128.566 168.966 128.566L168.755 128.431ZM157.427 128.566C158.683 128.547 159.904 128.148 160.929 127.42L160.141 125.563C159.406 126.095 158.528 126.394 157.621 126.423C156.377 126.423 155.468 125.809 155.468 123.69V114.823H160.721V112.868H155.468V109.101L153.051 109.539V112.868H150.76V114.848H153.051V123.61C153.051 127.221 154.68 128.534 157.404 128.534L157.427 128.566ZM136.215 119.545C136.271 118.224 136.835 116.974 137.79 116.059C138.744 115.143 140.015 114.632 141.338 114.632C142.66 114.632 143.931 115.143 144.885 116.059C145.84 116.974 146.404 118.224 146.46 119.545H136.215ZM141.784 128.534C143.893 128.534 145.94 127.825 147.596 126.519L146.547 124.765C145.197 125.835 143.525 126.415 141.803 126.411C140.412 126.435 139.063 125.931 138.028 125.002C136.992 124.073 136.345 122.786 136.217 121.4H148.774V120.453C148.814 119.447 148.654 118.443 148.305 117.498C147.955 116.554 147.423 115.688 146.738 114.95C146.052 114.212 145.228 113.617 144.313 113.199C143.397 112.781 142.408 112.548 141.402 112.515C139.328 112.632 137.381 113.55 135.97 115.075C134.56 116.6 133.796 118.614 133.839 120.692C133.882 122.769 134.729 124.749 136.201 126.215C137.674 127.68 139.657 128.517 141.734 128.548L141.784 128.534ZM123.068 126.217C121.929 126.287 120.796 126.013 119.815 125.431C118.833 124.849 118.05 123.985 117.565 122.952C117.081 121.918 116.918 120.763 117.097 119.636C117.277 118.509 117.791 117.462 118.573 116.63C119.355 115.799 120.368 115.222 121.481 114.974C122.595 114.726 123.757 114.819 124.817 115.24C125.877 115.662 126.786 116.392 127.427 117.337C128.067 118.281 128.409 119.397 128.408 120.538C128.448 121.266 128.34 121.995 128.09 122.68C127.841 123.365 127.454 123.992 126.955 124.524C126.455 125.055 125.853 125.479 125.185 125.77C124.517 126.061 123.796 126.213 123.068 126.217ZM123.592 128.548C125.573 128.341 127.407 127.407 128.74 125.927C130.073 124.446 130.811 122.524 130.811 120.531C130.811 118.538 130.073 116.616 128.74 115.136C127.407 113.655 125.573 112.721 123.592 112.515C122.45 112.453 121.311 112.698 120.295 113.225C119.28 113.752 118.423 114.541 117.814 115.511V107.416H115.363V128.227H117.654V125.634C118.276 126.616 119.151 127.411 120.186 127.938C121.221 128.466 122.378 128.705 123.537 128.631" fill="#848585"/>
<path d="M388.87 65.6953C388.222 69.2005 387.592 72.802 386.996 76.3484C386.927 76.6683 386.941 77.0006 387.036 77.3138C387.13 77.6271 387.303 77.9111 387.538 78.139C387.772 78.367 388.061 78.5314 388.377 78.6168C388.693 78.7022 389.025 78.7057 389.342 78.6271C389.972 78.5523 390.559 78.2711 391.012 77.8274C391.465 77.3837 391.758 76.8024 391.846 76.1742C392.039 75.3146 392.162 74.4228 392.305 73.5631C392.795 70.8121 393.285 68.0428 393.723 65.5211C393.723 64.0494 393.006 63.3135 391.78 63.2608H391.675C390.993 63.2621 390.335 63.5088 389.821 63.9559C389.306 64.4029 388.97 65.0204 388.873 65.6953H388.87ZM424.382 50.3633C423.007 50.8355 422.632 51.968 422.386 53.2908C421.617 57.8643 420.783 62.4377 419.988 67.0112C419.45 70.025 418.916 73.0336 418.384 76.0367C418.21 77.0889 418.226 78.0861 419.452 78.5423C420 78.7024 420.586 78.6717 421.114 78.4552C421.642 78.2386 422.081 77.8491 422.359 77.3503C422.629 76.8006 422.801 76.2078 422.868 75.5988L425.337 61.5804C425.88 58.4443 426.423 55.3242 426.966 52.2592C427.004 52.0081 426.987 51.7519 426.916 51.5081C426.845 51.2644 426.722 51.0389 426.556 50.8473C426.389 50.6557 426.183 50.5025 425.952 50.3984C425.721 50.2942 425.469 50.2416 425.216 50.2441C424.948 50.2443 424.683 50.2853 424.428 50.3656L424.382 50.3633ZM476.331 50.2074C473.982 50.7042 471.832 51.8799 470.145 53.5888C469.776 53.8868 469.531 54.4301 468.814 54.2903L469.146 52.642C469.279 52.2809 469.289 51.886 469.175 51.5185C469.061 51.151 468.83 50.8312 468.516 50.6086C468.21 50.3832 467.845 50.2518 467.466 50.2302C467.086 50.2087 466.708 50.2979 466.379 50.4871C465.933 50.6787 465.547 50.9863 465.261 51.3777C464.975 51.7692 464.798 52.2303 464.75 52.7131C463.385 60.5518 462.01 68.3905 460.626 76.2292C460.506 76.5894 460.497 76.9774 460.6 77.3429C460.703 77.7083 460.913 78.0344 461.204 78.2787C461.551 78.5183 461.964 78.6465 462.386 78.6465C462.808 78.6465 463.22 78.5183 463.568 78.2787C463.968 78.0503 464.308 77.7288 464.558 77.3413C464.808 76.9539 464.961 76.5119 465.004 76.0527C465.985 70.4797 466.984 64.9251 467.964 59.3544C468.004 58.938 468.176 58.5451 468.454 58.2333C470.366 56.0749 473.04 54.7434 475.914 54.5195C476.717 54.494 477.478 54.1541 478.033 53.5727C478.408 53.2619 478.67 52.8353 478.778 52.3596C478.886 51.8839 478.833 51.3858 478.628 50.9433C478.501 50.6577 478.287 50.4195 478.017 50.2623C477.747 50.1052 477.434 50.0371 477.123 50.0676C476.861 50.0424 476.597 50.0424 476.335 50.0676L476.331 50.2074ZM490.344 50.0676C486.338 50.9432 482.767 53.1977 480.251 56.4381C477.736 59.6784 476.437 63.6993 476.58 67.7998C476.498 70.0612 477.147 72.2888 478.431 74.1515C479.715 76.0142 481.566 77.4126 483.707 78.1389C486.251 78.8353 488.912 78.9862 491.518 78.5817C494.124 78.1771 496.614 77.2262 498.827 75.7913C499.271 75.503 499.59 75.0576 499.72 74.5442C499.85 74.0307 499.781 73.4872 499.528 73.0221C498.951 72.2151 498.092 72.1991 496.85 73.0221C494.753 74.3822 492.341 75.1788 489.847 75.3352C488.185 75.4923 486.516 75.1172 485.08 74.2639C483.645 73.4106 482.518 72.1233 481.861 70.5875C480.834 67.459 480.978 64.0638 482.267 61.0338C483.555 58.0038 485.9 55.5453 488.864 54.1161C494.871 51.7158 500.282 55.2623 500.053 61.452C500.053 62.369 499.737 62.6441 498.809 62.6257H487.478C485.955 62.6257 485.148 63.0108 485.132 64.2304C485.116 65.45 486.278 65.8787 487.304 65.8604H499.771C500.581 65.9685 501.404 65.8163 502.122 65.4257C502.84 65.0351 503.415 64.4262 503.764 63.6871C504.084 61.9025 504.084 60.0753 503.764 58.2907C503.46 56.4643 502.674 54.7524 501.487 53.332C500.503 52.1867 499.275 51.2772 497.892 50.6705C496.51 50.0638 495.009 49.7755 493.501 49.8268C492.436 49.836 491.374 49.9473 490.33 50.1592L490.344 50.0676ZM423.351 44.1851C423.334 44.5096 423.384 44.834 423.498 45.1386C423.611 45.4431 423.785 45.7213 424.01 45.9559C424.234 46.1906 424.505 46.3768 424.804 46.5031C425.103 46.6295 425.425 46.6933 425.75 46.6907C426.646 46.6629 427.5 46.3035 428.147 45.6819C428.794 45.0603 429.188 44.2207 429.252 43.3254C429.269 43.0009 429.219 42.6764 429.106 42.3719C428.992 42.0674 428.818 41.7892 428.593 41.5546C428.369 41.3199 428.099 41.1337 427.799 41.0073C427.5 40.881 427.178 40.8171 426.854 40.8198C425.956 40.8519 425.102 41.2149 424.455 41.8391C423.809 42.4632 423.415 43.3044 423.351 44.2011V44.1851ZM397.381 39.9944C396.324 39.9124 395.273 40.2251 394.433 40.8724C393.592 41.5197 393.021 42.4557 392.829 43.4996C391.913 48.3528 391.079 53.2243 390.238 58.0958C390.164 58.3936 390.153 58.7038 390.208 59.006C390.262 59.3081 390.379 59.5954 390.553 59.8488C390.726 60.1022 390.95 60.316 391.212 60.4762C391.474 60.6363 391.767 60.7392 392.071 60.778C392.65 60.8654 393.236 60.9007 393.821 60.8834H411.944C412.363 60.9275 412.786 60.9275 413.204 60.8834C413.806 60.7678 414.342 60.4294 414.706 59.9356C415.069 59.4418 415.234 58.8291 415.166 58.2196C415.078 57.0986 414.448 56.6148 412.925 56.6148H395.413C396.114 52.7176 396.788 48.9213 397.427 45.1204C397.567 44.3318 398.041 44.3845 398.6 44.4029H415.218C415.757 44.4263 416.296 44.3793 416.822 44.263C417.395 44.1028 417.89 43.7379 418.212 43.2373C418.535 42.7367 418.663 42.1351 418.572 41.5464C418.38 40.2489 417.427 40.0563 416.332 40.0563H397.317L397.381 39.9944ZM436.7 40.1779C436.359 40.3859 436.069 40.669 435.853 41.0059C435.638 41.3428 435.502 41.7245 435.456 42.1219C433.787 51.4675 432.117 60.8712 430.448 70.333C430.098 72.3137 429.761 74.2944 429.433 76.2728C429.305 76.6925 429.324 77.1434 429.486 77.5511C429.648 77.9587 429.945 78.2987 430.327 78.5148C430.752 78.7024 431.225 78.7559 431.681 78.6683C432.138 78.5806 432.557 78.356 432.883 78.0242C433.468 77.4756 433.819 76.7228 433.864 75.922C434.739 70.9634 435.791 66.0392 436.402 61.0622C436.531 59.8611 436.968 58.7137 437.67 57.7313C438.373 56.7488 439.317 55.9647 440.411 55.4549C441.362 54.9211 442.374 54.5032 443.424 54.21C448.292 52.8598 452.425 55.244 453.046 59.8702C453.38 61.9945 453.239 64.1665 452.633 66.2298C452.027 68.2931 450.972 70.1963 449.543 71.8025C448.29 73.2904 446.598 74.3418 444.71 74.8049C442.821 75.268 440.835 75.1189 439.037 74.3792C438.388 74.1156 437.706 73.9758 437.287 74.6429C437.029 74.9564 436.888 75.3498 436.888 75.7559C436.888 76.1619 437.029 76.5553 437.287 76.8688C438.035 77.9016 439.162 78.595 440.42 78.7968C442.336 79.227 444.327 79.1904 446.225 78.6901C448.124 78.1898 449.874 77.2405 451.33 75.922C454.004 73.6565 455.988 70.6834 457.053 67.3428C458.118 64.0022 458.222 60.429 457.353 57.0321C457.011 55.259 456.118 53.6393 454.801 52.4043C453.485 51.1692 451.812 50.3819 450.022 50.1547C447.194 49.6198 444.267 50.0978 441.756 51.5049C440.298 52.2676 438.949 53.2222 437.745 54.343C437.62 53.9554 437.62 53.5385 437.745 53.151L439.687 42.0233C439.828 41.6419 439.831 41.2236 439.697 40.8401C439.563 40.4566 439.299 40.1318 438.952 39.9211C438.654 39.7292 438.308 39.6259 437.953 39.6231C437.462 39.6476 436.986 39.8061 436.579 40.0815" fill="url(#paint0_linear_3_31)"/>
<path d="M188.157 54.3224C194.443 48.2428 201.815 48.5041 204.459 54.7419L206.063 53.2358C207.321 51.9622 208.868 51.0118 210.573 50.4658C212.277 49.9197 214.088 49.7941 215.852 50.0997C217.38 50.3368 218.778 51.1001 219.804 52.2581C220.831 53.4161 221.421 54.8961 221.474 56.4429C221.596 58.1165 221.631 59.7954 221.579 61.4726V75.8418C221.579 77.6987 220.773 78.7509 219.355 78.7326C217.936 78.7143 217.217 77.6643 217.217 75.8945V59.4048C217.077 54.7442 213.714 52.6236 209.476 54.3934C208.745 54.7061 208.047 55.0901 207.391 55.5397C206.534 56.0064 205.829 56.7115 205.363 57.5697C204.897 58.428 204.689 59.4028 204.764 60.3768C204.974 65.6334 204.764 71.0299 204.764 76.3576C204.815 76.8626 204.68 77.3688 204.385 77.7816C204.09 78.1943 203.654 78.4851 203.16 78.5997C202.711 78.734 202.231 78.7157 201.793 78.5477C201.356 78.3797 200.987 78.0715 200.743 77.6712C200.471 77.1999 200.367 76.6507 200.445 76.1123V60.1132C200.471 59.6551 200.471 59.1958 200.445 58.7377C200.466 57.8874 200.267 57.0462 199.867 56.2957C199.467 55.5451 198.88 54.9108 198.163 54.4542C197.446 53.9975 196.623 53.734 195.774 53.6892C194.925 53.6444 194.079 53.8199 193.318 54.1986C191.488 54.838 189.869 55.9718 188.643 57.4746C188.281 57.9368 188.112 58.5207 188.171 59.1045V75.8395C188.206 76.2208 188.206 76.6045 188.171 76.9858C188.076 77.515 187.785 77.9891 187.357 78.3137C186.929 78.6382 186.394 78.7894 185.859 78.7372C185.604 78.7396 185.35 78.6917 185.114 78.596C184.877 78.5004 184.661 78.359 184.479 78.18C184.297 78.0009 184.152 77.7877 184.052 77.5525C183.953 77.3173 183.9 77.0647 183.898 76.8092V52.2798C183.915 52.0047 183.987 51.7358 184.109 51.4889C184.232 51.2421 184.403 51.0223 184.612 50.8426C184.821 50.6629 185.063 50.5268 185.325 50.4425C185.588 50.3583 185.864 50.3274 186.139 50.3518C186.667 50.3544 187.175 50.5561 187.561 50.9169C187.948 51.2776 188.184 51.7708 188.223 52.2981V54.3843" fill="#848585"/>
<path d="M230.814 54.3224C236.999 47.8049 245.295 49.0658 247.221 54.9185C248.178 53.6355 249.366 52.5424 250.724 51.6952C253.078 50.179 255.922 49.6213 258.673 50.1364C262.176 50.7668 264.206 53.5178 264.277 57.846V76.1055C264.277 77.7354 263.418 78.7694 262.053 78.735C261.74 78.7135 261.436 78.6288 261.157 78.4861C260.879 78.3434 260.632 78.1456 260.432 77.9047C260.233 77.6637 260.084 77.3847 259.995 77.0845C259.906 76.7843 259.879 76.4692 259.915 76.1582C260.002 70.9016 259.915 65.645 259.915 60.3883C259.93 59.8436 259.901 59.2984 259.828 58.7583C259.847 57.8974 259.642 57.0464 259.234 56.2882C258.826 55.53 258.229 54.8904 257.501 54.4317C256.772 53.9731 255.938 53.711 255.078 53.6709C254.219 53.6309 253.363 53.8142 252.596 54.2032C250.809 54.8294 249.221 55.9178 247.991 57.3576C247.596 57.8509 247.413 58.4809 247.482 59.1091V76.1078C247.546 76.5892 247.457 77.0785 247.228 77.5064C246.999 77.9343 246.64 78.2791 246.204 78.4919C245.849 78.6523 245.458 78.7157 245.07 78.6756C244.682 78.6356 244.312 78.4935 243.997 78.2638C243.682 78.0342 243.434 77.7252 243.277 77.3682C243.12 77.0112 243.061 76.619 243.104 76.2316V58.6025C243.121 57.8713 242.969 57.1461 242.66 56.4835C242.35 55.8209 241.892 55.2388 241.321 54.7825C240.75 54.3263 240.081 54.0083 239.367 53.8533C238.652 53.6983 237.912 53.7106 237.203 53.8891C234.788 54.3533 232.63 55.6948 231.144 57.6557C230.837 58.1073 230.718 58.6606 230.811 59.1985V76.3026C230.854 76.6583 230.806 77.0189 230.671 77.3509C230.537 77.6828 230.321 77.9753 230.043 78.201C229.765 78.4267 229.434 78.5783 229.082 78.6416C228.73 78.7049 228.367 78.6778 228.028 78.563C227.576 78.4466 227.178 78.1779 226.9 77.8022C226.623 77.4264 226.483 76.9665 226.505 76.4998V52.4472C226.497 52.153 226.55 51.8604 226.661 51.5877C226.771 51.315 226.937 51.0681 227.147 50.8624C227.358 50.6567 227.608 50.4966 227.883 50.3922C228.158 50.2878 228.451 50.2413 228.745 50.2556C229.027 50.2605 229.305 50.3219 229.562 50.4364C229.819 50.5509 230.051 50.7161 230.244 50.9221C230.436 51.1281 230.585 51.3706 230.682 51.6353C230.778 51.9001 230.821 52.1817 230.807 52.4633V54.2147" fill="#848585"/>
<path d="M134.376 39.4098C136.858 39.268 139.341 39.6644 141.656 40.5716C143.971 41.4788 146.063 42.8757 147.789 44.6665C148.193 45.0406 148.458 45.5404 148.541 46.0846C148.624 46.6287 148.52 47.185 148.247 47.6627C148.075 47.9742 147.831 48.2398 147.535 48.4373C147.239 48.6349 146.901 48.7586 146.547 48.7981C146.194 48.8376 145.836 48.7919 145.504 48.6645C145.172 48.5372 144.875 48.332 144.639 48.0662C143.013 46.1761 140.869 44.805 138.472 44.1228C136.075 43.4406 133.531 43.4774 131.155 44.2286C128.678 44.848 126.421 46.1419 124.634 47.967C122.847 49.7921 121.601 52.0768 121.033 54.5676C120.05 57.8028 120.113 61.2661 121.214 64.4633C122.314 67.6605 124.396 70.4281 127.162 72.371C129.801 74.1724 132.994 74.9748 136.171 74.6345C139.347 74.2943 142.299 72.8336 144.497 70.5141C144.685 70.2622 144.923 70.0518 145.196 69.8963C145.469 69.7408 145.771 69.6435 146.083 69.6106C146.396 69.5776 146.712 69.6098 147.011 69.7049C147.311 69.8 147.587 69.9561 147.823 70.1633C148.068 70.3943 148.262 70.6728 148.395 70.9816C148.528 71.2905 148.597 71.6232 148.597 71.9595C148.597 72.2958 148.528 72.6286 148.395 72.9374C148.262 73.2463 148.068 73.5247 147.823 73.7557C145.988 75.6683 143.735 77.1302 141.241 78.027C138.747 78.9238 136.08 79.2312 133.448 78.9252C129.199 78.7085 125.151 77.0515 121.968 74.2267C118.786 71.4019 116.658 67.5774 115.936 63.3822C113.817 52.3944 119.718 42.1081 130.907 39.7973C132.06 39.5506 133.232 39.4102 134.41 39.3778" fill="#848585"/>
<path d="M367.297 73.1779L375.808 52.046C375.944 51.5387 376.245 51.0911 376.664 50.774C377.082 50.4569 377.594 50.2882 378.119 50.2945C378.488 50.2817 378.854 50.3654 379.18 50.5374C379.507 50.7094 379.783 50.9637 379.981 51.2752C380.179 51.5867 380.292 51.9445 380.31 52.3133C380.327 52.6821 380.248 53.049 380.08 53.3779C375.808 63.6459 371.554 73.9138 367.228 84.1474C366.589 85.9302 365.361 87.4408 363.746 88.429C362.132 89.4172 360.228 89.8235 358.351 89.5806C357.978 89.5569 357.609 89.4986 357.247 89.4064C357.017 89.3762 356.797 89.3009 356.597 89.1848C356.397 89.0687 356.222 88.9142 356.082 88.73C355.942 88.5458 355.84 88.3358 355.781 88.1119C355.723 87.888 355.709 87.6547 355.742 87.4256C355.847 86.339 356.548 85.5161 357.65 85.6742C361.153 86.1832 362.552 84.2208 363.796 81.4171C364.233 80.5437 364.46 79.5807 364.46 78.6042C364.46 77.6278 364.233 76.6648 363.796 75.7914C360.589 68.4326 357.611 60.9843 354.532 53.5727C354.315 53.1901 354.215 52.7525 354.243 52.3135C354.271 51.8745 354.426 51.4533 354.69 51.1014C354.952 50.7692 355.306 50.5209 355.707 50.3869C356.108 50.2529 356.54 50.2392 356.949 50.3473C357.379 50.4389 357.772 50.6531 358.083 50.9639C358.394 51.2747 358.608 51.6688 358.699 52.0987L365.265 68.256C365.913 69.8607 366.578 71.4792 367.327 73.2857" fill="#848585"/>
<path d="M287.795 74.6154C285.642 76.8732 282.816 78.3731 279.741 78.8908C277.822 79.1876 275.86 79.0306 274.013 78.4323C272.458 77.8777 271.134 76.8161 270.255 75.4178C269.375 74.0195 268.991 72.3659 269.164 70.7227V52.7085C269.132 52.4037 269.165 52.0958 269.26 51.8045C269.355 51.5133 269.511 51.2453 269.716 51.0179C269.921 50.7905 270.171 50.6086 270.451 50.4842C270.731 50.3597 271.034 50.2954 271.34 50.2954C271.646 50.2954 271.949 50.3597 272.229 50.4842C272.508 50.6086 272.759 50.7905 272.964 51.0179C273.169 51.2453 273.324 51.5133 273.419 51.8045C273.515 52.0958 273.548 52.4037 273.516 52.7085V68.4784C273.358 74.4022 277.019 75.8143 281.782 74.8973C282.893 74.6562 283.953 74.2234 284.916 73.6181C285.876 73.1744 286.676 72.4446 287.205 71.5287C287.735 70.6128 287.969 69.5554 287.876 68.5013C287.876 68.5013 287.789 52.8873 287.876 52.5021C287.876 52.2085 287.934 51.918 288.049 51.6476C288.163 51.3773 288.331 51.1327 288.541 50.9284C288.752 50.7242 289.002 50.5644 289.275 50.4586C289.549 50.3529 289.841 50.3033 290.135 50.3128C290.428 50.3119 290.718 50.3719 290.987 50.489C291.256 50.6062 291.498 50.7779 291.697 50.9934C291.896 51.2089 292.049 51.4635 292.144 51.741C292.24 52.0184 292.277 52.3127 292.254 52.6053V76.2177C292.314 76.7453 292.178 77.2768 291.871 77.71C291.564 78.1432 291.108 78.4478 290.59 78.5653C290.147 78.7033 289.67 78.6866 289.238 78.5179C288.805 78.3492 288.443 78.0386 288.21 77.6368C287.95 77.1981 287.822 76.6933 287.841 76.1834C287.873 75.6581 287.873 75.1315 287.841 74.6062" fill="#848585"/>
<path d="M302.311 54.4622C304.282 52.3951 306.794 50.9252 309.561 50.2211C311.325 49.818 313.156 49.818 314.92 50.2211C318.876 51.0625 320.979 53.8318 321.066 58.458V76.4012C321.091 76.7063 321.052 77.0132 320.951 77.302C320.849 77.5909 320.689 77.8554 320.479 78.0783C320.27 78.3013 320.015 78.4778 319.733 78.5964C319.451 78.715 319.148 78.7732 318.842 78.767C318.537 78.7517 318.239 78.6747 317.965 78.5408C317.691 78.4069 317.446 78.2187 317.247 77.9878C317.047 77.7569 316.897 77.4879 316.804 77.197C316.711 76.9062 316.678 76.5997 316.707 76.2957V60.9362C316.707 54.8565 312.812 52.1743 307.11 54.5929C306.452 54.8679 305.814 55.1897 305.202 55.5558C304.25 56.0217 303.461 56.7647 302.939 57.6873C302.417 58.6098 302.186 59.6688 302.276 60.7252L302.382 76.0848C302.435 76.4056 302.419 76.734 302.335 77.0482C302.251 77.3623 302.102 77.6551 301.896 77.9071C301.691 78.159 301.434 78.3643 301.144 78.5094C300.853 78.6545 300.535 78.7361 300.21 78.7486C298.897 78.8357 298.038 77.7331 298.038 76.1031V52.9285C298.038 51.2802 298.826 50.3358 300.228 50.3175C301.63 50.2991 302.347 51.2344 302.347 52.9629V54.5218" fill="#848585"/>
<path d="M344.967 50.5834H349.135C349.61 50.6047 350.059 50.8105 350.386 51.1571C350.712 51.5037 350.891 51.9639 350.885 52.4402C350.915 52.6873 350.892 52.938 350.817 53.1755C350.743 53.4129 350.619 53.6318 350.453 53.8175C350.288 54.0032 350.084 54.1514 349.857 54.2523C349.63 54.3532 349.383 54.4045 349.135 54.4026C347.989 54.4898 344.844 54.4026 344.844 54.4026V71.6099C344.844 74.448 346.246 75.4292 348.995 74.7988C350.344 74.5007 351.393 74.9386 351.691 75.945C351.758 76.2122 351.77 76.4902 351.726 76.7621C351.682 77.034 351.583 77.2941 351.436 77.5267C351.289 77.7593 351.095 77.9595 350.868 78.1152C350.641 78.2709 350.385 78.3787 350.115 78.4323C348.211 79.1429 346.126 79.2105 344.179 78.6249C342.978 78.2033 341.955 77.3862 341.277 76.3073C340.6 75.2283 340.308 73.9514 340.45 72.6851V54.4095H337.524C337.259 54.4451 336.989 54.4197 336.736 54.3351C336.482 54.2506 336.251 54.1092 336.06 53.9217C335.869 53.7342 335.723 53.5055 335.634 53.2532C335.545 53.0008 335.514 52.7314 335.545 52.4655C335.527 51.2207 336.193 50.6086 337.524 50.5559H340.45V44.8522C340.448 44.5587 340.504 44.2679 340.616 43.9968C340.729 43.7257 340.894 43.4798 341.103 43.2739C341.312 43.068 341.56 42.9062 341.833 42.7981C342.106 42.69 342.397 42.6378 342.69 42.6446C342.975 42.6418 343.258 42.6971 343.521 42.807C343.783 42.917 344.021 43.0793 344.219 43.2841C344.418 43.4889 344.572 43.7319 344.674 43.9983C344.775 44.2647 344.821 44.549 344.809 44.8338C344.818 44.9154 344.818 44.9976 344.809 45.0791C344.809 45.8333 344.809 50.5467 344.809 50.5467" fill="#848585"/>
<path d="M331.24 64.5239V76.2293C331.279 76.6279 331.209 77.0295 331.038 77.3918C330.868 77.754 330.603 78.0636 330.271 78.2877C329.94 78.5119 329.554 78.6424 329.154 78.6654C328.754 78.6884 328.356 78.6031 328.001 78.4186C327.584 78.1695 327.252 77.8005 327.047 77.3596C326.843 76.9188 326.776 76.4267 326.855 75.9473V52.94C326.855 51.3972 327.38 50.6086 328.519 50.3106C328.866 50.2184 329.23 50.2131 329.58 50.2952C329.93 50.3774 330.254 50.5444 330.524 50.7817C330.794 51.0189 331.001 51.319 331.128 51.6555C331.254 51.9919 331.296 52.3544 331.249 52.7108C331.249 56.6539 331.249 60.5785 331.249 64.5216" fill="#848585"/>
<path d="M326.161 43.8183C326.14 43.4325 326.197 43.0463 326.33 42.6835C326.463 42.3207 326.669 41.9889 326.934 41.7084C327.2 41.4279 327.52 41.2045 327.874 41.0521C328.229 40.8997 328.611 40.8214 328.998 40.822C329.401 40.7921 329.806 40.8459 330.188 40.9799C330.57 41.1138 330.92 41.3252 331.216 41.6007C331.513 41.8762 331.749 42.2099 331.911 42.581C332.073 42.9522 332.156 43.3527 332.156 43.7575C332.156 44.1624 332.073 44.5629 331.911 44.934C331.749 45.3051 331.513 45.6388 331.216 45.9143C330.92 46.1898 330.57 46.4012 330.188 46.5352C329.806 46.6692 329.401 46.7229 328.998 46.6931C328.622 46.6931 328.25 46.6185 327.904 46.4736C327.557 46.3287 327.243 46.1163 326.979 45.8488C326.715 45.5814 326.507 45.2642 326.367 44.9156C326.226 44.5671 326.157 44.1941 326.161 43.8183Z" fill="#848585"/>
<path d="M173.676 70.2C173.008 71.707 171.903 72.9787 170.505 73.8505C169.106 74.7222 167.479 75.154 165.832 75.0898C164.209 75.1278 162.61 74.6947 161.228 73.8428C159.846 72.991 158.74 71.7568 158.043 70.2894C157.084 68.461 156.618 66.4134 156.694 64.3496C156.628 62.8138 156.888 61.2815 157.455 59.853C158.022 58.4245 158.885 57.132 159.986 56.06C161.038 55.1127 162.303 54.4347 163.674 54.0838C165.045 53.7329 166.48 53.7197 167.857 54.0453C169.234 54.3709 170.512 55.0257 171.581 55.9535C172.65 56.8813 173.478 58.0545 173.995 59.3727C174.75 61.0878 175.113 62.9498 175.058 64.8232C175.004 66.6965 174.532 68.5342 173.679 70.2023L173.676 70.2ZM179.388 61.7041C179.146 59.1754 178.163 56.7747 176.561 54.804C174.96 52.8333 172.811 51.3808 170.387 50.6292C167.927 49.7048 165.25 49.5294 162.691 50.125C160.133 50.7206 157.808 52.0606 156.009 53.9762C154.515 55.6168 153.4 57.5662 152.743 59.6862C152.086 61.8061 151.904 64.0447 152.208 66.2432C152.769 73.6731 158.46 79.0352 167.04 79.0535C169.48 78.9697 171.843 78.1715 173.835 76.7576C175.827 75.3436 177.361 73.3761 178.247 71.0986C179.567 68.1674 179.966 64.9042 179.392 61.7408" fill="#848585"/>
<path d="M35.4609 103.035C35.4089 103.545 35.4748 104.061 35.6534 104.541C36.0011 105.457 36.6885 106.203 37.5724 106.624C38.4562 107.045 39.4683 107.109 40.3979 106.802C41.3568 106.521 42.1715 105.883 42.6734 105.018C43.1752 104.154 43.3259 103.13 43.0943 102.157L36.9546 78.187L35.4655 103.035" fill="url(#paint1_linear_3_31)"/>
<path d="M47.1629 94.8762C47.2504 95.1129 47.388 95.3279 47.5662 95.5066C47.7089 95.6746 47.8846 95.8114 48.0825 95.9085C48.2803 96.0055 48.496 96.0607 48.7162 96.0705C48.9363 96.0804 49.1561 96.0448 49.3618 95.966C49.5676 95.8871 49.7549 95.7666 49.9121 95.6121C50.2355 95.2732 50.4231 94.827 50.4392 94.3586C50.4552 93.8902 50.2986 93.4323 49.9991 93.072L39.493 78.1939L47.1629 94.8762Z" fill="url(#paint2_linear_3_31)"/>
<path d="M23.8139 92.8726C23.6524 93.0588 23.5384 93.2814 23.4817 93.5213C23.3617 93.9629 23.4192 94.434 23.6418 94.8337C23.8644 95.2335 24.2346 95.5301 24.673 95.6602C25.1239 95.7932 25.6083 95.7518 26.0301 95.5442C26.4519 95.3365 26.7803 94.9778 26.9502 94.5392C26.9502 94.5392 34.2811 78.3658 34.3223 78.226C34.3636 78.0861 23.8162 92.8749 23.8162 92.8749" fill="url(#paint3_linear_3_31)"/>
<path d="M63.2497 94.5025C63.9902 95.0259 64.8404 95.3733 65.7353 95.5181C67.4457 95.7765 69.1898 95.3653 70.605 94.3701C72.0202 93.3749 72.9977 91.8722 73.3343 90.1743C73.7433 88.4546 73.4748 86.6432 72.5845 85.1163C71.6942 83.5893 70.2505 82.4642 68.5531 81.9742C68.5531 81.9742 43.1241 77.5245 42.549 77.3663C42.549 77.4901 63.2474 94.5048 63.2474 94.5048" fill="url(#paint4_linear_3_31)"/>
<path d="M9.03548 77.873C7.53719 78.2662 6.23536 79.1963 5.37715 80.4867C4.51894 81.777 4.16408 83.3378 4.38001 84.8727C4.59594 86.4076 5.36761 87.8097 6.54847 88.8128C7.72933 89.8159 9.23717 90.3503 10.7857 90.3142C11.5781 90.2525 12.3453 90.0068 13.0263 89.5967C13.0263 89.5967 32.2882 75.6653 32.2882 75.5782C31.7453 75.6653 8.92093 77.8707 8.92093 77.8707" fill="url(#paint5_linear_3_31)"/>
<path d="M90.7269 69.9181C90.7269 69.9181 43.4471 74.8423 43.0256 74.9295L91.1644 78.7143C91.8124 78.8113 92.4734 78.7754 93.1071 78.6088C93.6721 78.4871 94.2069 78.2534 94.6801 77.9215C95.1533 77.5895 95.5552 77.166 95.862 76.676C96.1689 76.1859 96.3746 75.6393 96.4668 75.0685C96.5591 74.4976 96.536 73.914 96.3991 73.3522C96.086 72.3202 95.444 71.419 94.5713 70.7862C93.6986 70.1533 92.6429 69.8235 91.5653 69.847C91.2853 69.8297 91.0046 69.8297 90.7246 69.847" fill="url(#paint6_linear_3_31)"/>
<path d="M8.09166 66.2891C8.03718 66.9053 8.22417 67.5186 8.61318 67.9994C9.00218 68.4802 9.56273 68.7909 10.1764 68.8658L32.8174 73.2467L11.3493 64.3451C11.0657 64.1987 10.752 64.1202 10.433 64.1158C9.84548 64.115 9.28011 64.3401 8.85375 64.7446C8.42738 65.1491 8.17262 65.702 8.14207 66.2891" fill="url(#paint7_linear_3_31)"/>
<path d="M82.1793 52.7269C82.1793 52.7269 52.7962 66.9035 45.5454 71.1789L44.5649 71.775L85.5401 60.613C86.1101 60.4964 86.648 60.257 87.1163 59.9115C87.9958 59.257 88.5864 58.2857 88.763 57.2032C88.9396 56.1207 88.6883 55.0119 88.0624 54.1115C87.4431 53.1734 86.4884 52.5081 85.3944 52.2523C84.3003 51.9965 83.1499 52.1696 82.1793 52.736" fill="url(#paint8_linear_3_31)"/>
<path d="M66.9794 39.1462C66.9794 39.1462 49.4676 59.6135 42.7965 68.4441C42.4804 68.8476 42.2008 69.251 41.903 69.6705L75.1739 47.2593C75.8169 46.8437 76.3561 46.2861 76.7501 45.6293C77.4956 44.3747 77.7297 42.8811 77.4038 41.4583C77.0779 40.0355 76.217 38.793 74.9998 37.9886C74.0027 37.2941 72.8172 36.9213 71.6024 36.9203C70.7259 36.9155 69.8602 37.114 69.0732 37.5003C68.2862 37.8865 67.5993 38.4498 67.0664 39.1462" fill="url(#paint9_linear_3_31)"/>
<path d="M2.17178 34.9235C1.5289 35.2904 0.991343 35.8169 0.610938 36.4521C0.230533 37.0873 0.0201254 37.8099 3.24356e-06 38.5502C-0.00205 39.2131 0.166818 39.8653 0.490268 40.4438C0.748594 40.9634 1.12715 41.4137 1.59447 41.7574C1.59447 41.7574 33.4656 69.7943 33.5343 69.7943L32.9043 68.8315C28.263 61.8211 8.05713 36.1683 8.05713 36.1683C7.65443 35.5663 7.10881 35.0736 6.46912 34.7343C5.82943 34.395 5.11566 34.2198 4.39169 34.2243C3.60897 34.2288 2.8414 34.4408 2.1672 34.8387" fill="url(#paint10_linear_3_31)"/>
<path d="M46.7734 26.5445C46.7734 26.5445 40.155 59.1205 39.1034 67.6187L38.9981 68.7925L54.8809 28.4885C55.141 27.941 55.2786 27.3433 55.2841 26.7371C55.3246 25.6512 54.9354 24.5932 54.2011 23.7928C53.4668 22.9923 52.4467 22.514 51.3621 22.4616H51.1513C50.0629 22.488 49.0207 22.9068 48.2163 23.641C47.4119 24.3751 46.8995 25.3753 46.7734 26.4574" fill="url(#paint11_linear_3_31)"/>
<path d="M19.5255 0C18.6241 0.0165925 17.7403 0.252615 16.9506 0.687713C15.5812 1.55708 14.5752 2.89588 14.1207 4.45363C13.6662 6.01138 13.7942 7.68144 14.481 9.15156C14.481 9.15156 30.5906 55.5534 35.4932 67.151C35.7223 67.6944 35.9834 68.2033 36.2102 68.7283C36.2973 68.7283 25.3536 5.64639 25.3536 5.64639C25.2605 4.78609 24.9989 3.95256 24.5839 3.19342C24.1072 2.27214 23.3972 1.49223 22.5248 0.931806C21.6523 0.371379 20.6481 0.0500727 19.6126 0H19.5255Z" fill="url(#paint12_linear_3_31)"/>
</g>
<defs>
<linearGradient id="paint0_linear_3_31" x1="386.953" y1="59.3588" x2="503.887" y2="59.3588" gradientUnits="userSpaceOnUse">
<stop stop-color="#EF7C22"/>
<stop offset="1" stop-color="#F5A022"/>
</linearGradient>
<linearGradient id="paint1_linear_3_31" x1="39.803" y1="107.08" x2="33.9823" y2="103.639" gradientUnits="userSpaceOnUse">
<stop stop-color="#F26524"/>
<stop offset="0.25" stop-color="#EF7C22"/>
<stop offset="1" stop-color="#F5A022"/>
</linearGradient>
<linearGradient id="paint2_linear_3_31" x1="50.1885" y1="96.394" x2="43.2449" y2="92.5702" gradientUnits="userSpaceOnUse">
<stop stop-color="#F26524"/>
<stop offset="0.25" stop-color="#EF7C22"/>
<stop offset="1" stop-color="#F5A022"/>
</linearGradient>
<linearGradient id="paint3_linear_3_31" x1="24.4997" y1="95.6142" x2="30.3121" y2="90.5846" gradientUnits="userSpaceOnUse">
<stop stop-color="#F26524"/>
<stop offset="0.25" stop-color="#EF7C22"/>
<stop offset="1" stop-color="#F5A022"/>
</linearGradient>
<linearGradient id="paint4_linear_3_31" x1="73.9856" y1="91.6746" x2="61.601" y2="76.6798" gradientUnits="userSpaceOnUse">
<stop stop-color="#F26524"/>
<stop offset="0.25" stop-color="#EF7C22"/>
<stop offset="1" stop-color="#F5A022"/>
</linearGradient>
<linearGradient id="paint5_linear_3_31" x1="3.50715" y1="86.4252" x2="12.2472" y2="75.2596" gradientUnits="userSpaceOnUse">
<stop stop-color="#F26524"/>
<stop offset="0.25" stop-color="#EF7C22"/>
<stop offset="1" stop-color="#F5A022"/>
</linearGradient>
<linearGradient id="paint6_linear_3_31" x1="97.0037" y1="74.6492" x2="93.075" y2="65.7007" gradientUnits="userSpaceOnUse">
<stop stop-color="#F26524"/>
<stop offset="0.25" stop-color="#EF7C22"/>
<stop offset="1" stop-color="#F5A022"/>
</linearGradient>
<linearGradient id="paint7_linear_3_31" x1="7.24139" y1="65.3576" x2="9.74892" y2="71.9698" gradientUnits="userSpaceOnUse">
<stop stop-color="#F26524"/>
<stop offset="0.25" stop-color="#EF7C22"/>
<stop offset="1" stop-color="#F5A022"/>
</linearGradient>
<linearGradient id="paint8_linear_3_31" x1="88.4641" y1="55.2594" x2="79.22" y2="69.1467" gradientUnits="userSpaceOnUse">
<stop stop-color="#F26524"/>
<stop offset="0.25" stop-color="#EF7C22"/>
<stop offset="1" stop-color="#F5A022"/>
</linearGradient>
<linearGradient id="paint9_linear_3_31" x1="75.8364" y1="39.442" x2="61.84" y2="52.0039" gradientUnits="userSpaceOnUse">
<stop stop-color="#F26524"/>
<stop offset="0.25" stop-color="#EF7C22"/>
<stop offset="1" stop-color="#F5A022"/>
</linearGradient>
<linearGradient id="paint10_linear_3_31" x1="0.469466" y1="34.331" x2="15.4037" y2="48.7457" gradientUnits="userSpaceOnUse">
<stop stop-color="#F26524"/>
<stop offset="0.25" stop-color="#EF7C22"/>
<stop offset="1" stop-color="#F5A022"/>
</linearGradient>
<linearGradient id="paint11_linear_3_31" x1="52.7134" y1="22.5543" x2="42.1824" y2="25.8979" gradientUnits="userSpaceOnUse">
<stop stop-color="#F26524"/>
<stop offset="0.25" stop-color="#EF7C22"/>
<stop offset="1" stop-color="#F5A022"/>
</linearGradient>
<linearGradient id="paint12_linear_3_31" x1="18.2354" y1="0.343641" x2="32.3447" y2="6.50904" gradientUnits="userSpaceOnUse">
<stop stop-color="#F26524"/>
<stop offset="0.25" stop-color="#EF7C22"/>
<stop offset="1" stop-color="#F5A022"/>
</linearGradient>
<clipPath id="clip0_3_31">
<rect width="504" height="133" fill="white"/>
</clipPath>
</defs>
</svg>
